<svg width="13" height="16" viewBox="0 0 13 16" fill="none" xmlns="http://www.w3.org/2000/svg">
<path fill-rule="evenodd" clip-rule="evenodd" d="M5.09676 7.65011C4.31719 6.87233 4.31719 5.66678 5.09676 4.889C5.87634 4.11122 7.08468 4.11122 7.86425 4.889C8.64382 5.66678 8.64382 6.87233 7.86425 7.65011C7.12365 8.42789 5.87634 8.42789 5.09676 7.65011Z" stroke="#D9D9D9" stroke-width="1.5" stroke-linecap="round" stroke-linejoin="round"/>
<path d="M6.5 1C9.65727 1 12.1129 3.68333 11.996 6.63889C11.8011 11.6167 6.5 15 6.5 15" stroke="#D9D9D9" stroke-opacity="0.75" stroke-width="1.5" stroke-linecap="round" stroke-linejoin="round"/>
<path d="M1.3548 8.62207C1.43275 8.8554 1.51071 9.04985 1.58867 9.28318C2.9919 12.7832 6.49998 14.9998 6.49998 14.9998" stroke="#D9D9D9" stroke-width="1.5" stroke-linecap="round" stroke-linejoin="round"/>
<path d="M6.5 1C3.34273 1 0.887073 3.68333 1.00401 6.63889" stroke="#D9D9D9" stroke-width="1.5" stroke-linecap="round" stroke-linejoin="round"/>
</svg>
