<svg width="101" height="49" viewBox="0 0 101 49" fill="none" xmlns="http://www.w3.org/2000/svg">
<g opacity="0.397">
<path opacity="0.397" d="M67.704 31.285C67.518 31.037 67.735 30.666 67.735 30.666H54.171L55.681 31.979C56.015 32.112 56.433 32.442 56.624 32.949C57.077 34.143 56.404 33.174 56.404 34.979C56.404 36.64 55.933 36.371 55.933 36.371C55.933 36.371 55.833 38.333 54.813 39.537C54.163 40.187 54.667 40.723 54.667 40.723C54.667 40.723 54.448 40.846 54.13 42.268C54.027 42.728 54.62 43.438 55.135 43.261C55.52 43.129 54.198 43.001 55.629 42.402C56.183 42.17 55.731 41.732 55.731 41.732C55.731 41.732 56.661 41.66 57.183 40.266C58.106 40.399 57.763 39.836 59.665 39.429C60.169 39.32 60.275 39.171 60.213 38.7C60.15 38.229 60.833 38.768 62.717 36.856C64.203 35.348 63.667 35.009 64.695 34.461C65.778 33.886 65.88 34.511 66.242 34.041C67.071 32.969 66.779 33.038 67.126 32.355L67.369 31.976C67.369 31.976 67.891 31.532 67.704 31.286V31.285ZM73.945 31.822C70.827 41.484 62.057 49 50.945 49C39.16 49 31.236 41.585 28.054 32.031C31.365 40.931 40.371 47.311 50.961 47.311C61.633 47.311 70.704 40.83 73.945 31.822ZM54.728 15.862C53.891 15.887 53.882 15.208 53.296 15.332C52.709 15.457 52.811 14.832 52.384 14.822C52.068 14.815 51.622 14.666 51.474 14.889C51.23 15.252 51.756 14.734 52.3 15.196C53.073 15.85 53.011 15.405 53.473 15.778C53.771 16.021 53.528 16.16 53.705 16.072C54.039 15.905 54.561 16.153 54.561 16.153C54.561 16.153 55.569 15.838 54.728 15.863V15.862ZM57.923 17.069C58.043 17.069 58.209 17.04 58.223 16.891C58.104 16.83 58.013 16.755 57.863 16.77L57.923 17.069ZM55.209 16.769H55.39C55.541 16.726 55.661 16.905 55.691 17.01C56.143 16.65 56.657 16.755 57.139 16.65C56.657 16.454 56.25 16.066 55.691 16.05C54.969 16.066 55.631 16.425 55.209 16.77V16.769ZM50.944 0C38.55 0 31.136 7.444 28 17.081C30.465 10.314 36.218 4.982 43.462 2.769C43.378 2.843 43.326 2.909 43.32 2.969C42.65 3.386 42.88 3.865 42.547 3.975C41.969 4.168 41.337 5.927 41.337 5.927C41.337 5.927 41.695 6.167 40.573 7.419C39.646 8.45 39.373 10.012 39.373 10.012C39.373 10.012 39.983 11.125 39.868 12.411C39.779 13.389 39.738 12.663 40.166 13.371C40.416 13.787 40.688 15.237 40.853 14.673C41.171 13.593 40.278 12.595 40.426 11.521C40.459 11.656 40.766 11.095 40.756 11.601C40.723 12.928 42.397 15.48 42.397 15.48C42.397 15.48 41.772 16.112 42.425 16.112L42.26 16.503C42.26 16.503 42.743 16.476 43.056 16.73C43.369 16.985 43.64 17.3 43.926 17.3H48.737C48.737 17.3 49.079 15.847 49.357 15.6C49.637 15.354 48.799 15.6 48.55 15.354C48.302 15.107 48.147 15.57 48.023 15.817C47.898 16.065 47.743 16.497 47.371 16.619C46.998 16.744 46.1 16.805 45.915 16.805C45.728 16.805 45.167 15.749 45.167 15.749C44.672 14.951 45.041 13.957 45.604 12.989C46.02 12.279 47.122 11.965 48.084 12.339C49.162 11.493 49.421 12.402 50.376 11.991C51.631 11.451 50.931 13.427 52.143 13.925C52.645 12.595 50.998 11.594 52.033 10.967C52.77 10.519 53.326 10.241 53.628 9.642C54.058 8.786 54.226 8.162 54.558 8.05C55.324 7.792 55.158 7.068 55.158 7.068C55.158 7.068 55.974 7.304 56.606 6.713C56.122 6.455 55.416 6.232 55.602 5.714C55.82 5.104 57.462 6.344 57.945 5.344C56.971 4.92 55.975 4.003 55.378 3.791C54.97 4.233 54.715 4.056 54.188 3.641C53.296 2.94 53.22 3.605 52.664 3.124C52.218 4.012 52.889 3.941 53.094 4.165C53.668 4.789 52.516 3.604 52.627 5.196C52.654 5.608 52.04 5.686 51.584 4.789C51.347 4.324 49.453 4.422 49.166 3.975C49.428 3.456 51.659 1.608 55.081 2.05C54.978 2.01 54.874 1.975 54.768 1.938C63.802 3.278 71.184 9.304 74 17.29C70.923 7.545 62.463 0 50.944 0ZM10 20H6.263L6.821 20.661V25.547C6.821 26.645 6.091 27.109 5 27.109C3.91 27.109 3.178 26.645 3.178 25.547V20.661L3.738 20H0L0.56 20.661V25.626C0.56 28.06 1.927 29 5 29C8.073 29 9.442 28.06 9.442 25.626V20.66L10 20ZM23 20H19.832L20.393 20.674V25.208L15.848 20H13L13.563 20.674V28.326L13 29H16.169L15.607 28.326V23.71L20.433 29H22.439V20.674L23 20ZM31 29L30.407 28.326V20.674L31 20H27L27.595 20.674V28.326L27 29H31ZM42 20H38.885L39.435 20.674L37.235 25.626L35.115 20.674L35.665 20H32L36.07 29H37.89L42 20ZM53 29V26.558L52.362 27.124H48.018V25.397H50.77L51.395 25.965V23.035L50.77 23.601H48.018V21.874H52.362L53 22.442V20H45L45.535 20.674V28.326L45 29H53Z" fill="#464646"/>
<path opacity="0.397" fill-rule="evenodd" clip-rule="evenodd" d="M66 29L63.685 25.451C64.822 24.966 65.615 24.034 65.615 22.725C65.615 21.227 64.747 20 62.317 20H57L57.537 20.674V28.326L57 29H60.567L60.029 28.326V25.775H61.103L62.739 28.326L62.202 29H66ZM63.059 22.915C63.059 23.563 62.47 24.089 61.653 24.089H60.029V21.874H61.959C62.522 21.874 63.059 22.172 63.059 22.915Z" fill="#464646"/>
<path opacity="0.397" d="M77 25.95C77 24.457 75.883 23.627 74.254 23.063C73.204 22.713 71.71 22.46 71.71 21.715C71.71 21.35 72.127 21.095 72.84 21.095C73.783 21.095 75.344 21.518 76.556 22.137V19L75.856 19.718C75.116 19.395 73.836 19.056 72.948 19.056C69.96 19.056 69 20.464 69 21.742C69 23.487 70.08 24.247 71.777 24.879C73.042 25.343 74.214 25.386 74.214 26.159C74.214 26.819 73.487 26.904 73.124 26.904C72.194 26.904 70.525 26.552 69.051 25.527V29L69.75 28.184C70.43 28.464 71.979 28.944 73.244 28.944C75.842 28.944 77 27.72 77 25.949" fill="#464646"/>
<path opacity="0.397" fill-rule="evenodd" clip-rule="evenodd" d="M90 29L85.622 20H82.63L82.957 20.674L79 29H82.263L81.706 28.326L82.141 27.382H86.37L86.805 28.326L86.247 29H90ZM85.717 25.762H82.78L84.248 22.537L85.717 25.762Z" fill="#464646"/>
<path opacity="0.397" d="M101 29V26.558L100.341 27.124H96.12V20.674L96.672 20H93L93.551 20.674V28.326L93 29H101ZM99.1 21.5C99.1 22.252 99.508 22.859 100.006 22.859C100.503 22.859 100.912 22.252 100.912 21.501C100.912 20.748 100.502 20.139 100.006 20.139C99.508 20.139 99.099 20.748 99.099 21.501L99.1 21.5ZM99 21.5C99 20.672 99.453 20 100.006 20C100.558 20 101 20.672 101 21.5C101 22.33 100.558 23 100.006 23C99.453 23 99 22.33 99 21.5Z" fill="#464646"/>
<path opacity="0.397" fill-rule="evenodd" clip-rule="evenodd" d="M99.987 20.12C99.8721 20.04 99.735 19.9981 99.595 20C99.253 20 99 20.22 99 20.499C99 20.778 99.253 21 99.582 21C99.7322 21.003 99.8791 20.9562 100 20.867V20.74C99.9455 20.7955 99.8805 20.8394 99.8086 20.8691C99.7368 20.8988 99.6597 20.9138 99.582 20.913C99.316 20.913 99.114 20.716 99.114 20.499C99.114 20.281 99.316 20.087 99.582 20.087C99.747 20.087 99.886 20.144 99.987 20.244V20.119" fill="#464646"/>
</g>
</svg>
