<svg width="75" height="29" viewBox="0 0 75 29" fill="none" xmlns="http://www.w3.org/2000/svg">
<g clip-path="url(#clip0_1_748)">
<g opacity="0.397">
<path opacity="0.397" d="M15.859 0.455027V0.682027C16.603 1.02303 17.061 1.42203 17.347 1.87603V15.575C17.061 15.973 16.66 16.314 16.26 16.485V16.825H20.897V16.485C20.497 16.314 20.153 15.973 19.924 15.575V1.81903C20.153 1.25103 20.668 0.909027 21.298 0.625027V0.398027H15.858V0.455027H15.859ZM28.282 0.455027H23.072V0.682027C23.702 0.966027 24.16 1.30703 24.389 1.87603L29.943 16.484C30 16.654 30.458 16.654 30.515 16.484L33.835 7.27603C33.95 6.99203 34.122 6.99203 34.179 7.27603L37.729 16.484C37.786 16.654 38.244 16.654 38.302 16.484L43.512 1.87603C43.683 1.42103 44.027 1.02303 44.599 0.682027V0.455027H41.107V0.682027C41.908 0.966027 42.367 1.36403 42.195 1.87603L38.874 11.539C38.76 11.823 38.588 11.823 38.531 11.539L35.21 2.55803C34.866 1.64803 35.439 0.853027 36.126 0.738027V0.513027H30.916V0.740027C31.603 0.854027 32.118 1.47903 32.576 2.55903L33.321 4.37803C33.435 4.71803 33.435 4.83303 33.321 5.11703L31.088 11.54C31.031 11.767 30.802 11.71 30.744 11.54L27.595 2.55903C27.252 1.53603 27.481 0.854027 28.34 0.739027V0.456027H28.282V0.455027ZM59.198 5.45703H59.37L59.198 0.455027H59.027C58.282 1.87503 57.137 0.739027 55.019 0.455027C49.866 -0.284973 44.943 2.89903 44.943 8.98103C44.943 14.267 49.179 17.507 54.046 17.28C56.336 17.166 58.168 15.745 59.599 13.585H59.427C57.939 15.12 56.279 16.143 54.046 16.143C50.267 16.143 47.863 13.301 47.92 8.98103C47.977 3.86503 49.924 1.19403 54.046 1.25103C56.908 1.25103 58.34 2.95603 59.198 5.45703Z" fill="black" stroke="black" stroke-width="0.715"/>
<path opacity="0.397" d="M4.294 26.943C4.294 27.171 4.237 27.341 4.122 27.455C4.01077 27.6155 3.84983 27.735 3.664 27.795C3.492 27.909 3.264 27.966 3.034 27.966C2.805 28.023 2.576 28.023 2.404 28.023H1.947C1.775 28.023 1.603 27.966 1.431 27.909L0.916 27.739C0.744 27.682 0.573 27.569 0.458 27.512L0.573 27.398C0.687 27.512 0.859 27.568 0.973 27.625C1.145 27.682 1.26 27.739 1.431 27.795C1.603 27.853 1.718 27.853 1.889 27.909C2.061 27.909 2.176 27.966 2.29 27.966H2.69C2.863 27.966 2.977 27.909 3.149 27.909C3.263 27.853 3.435 27.796 3.549 27.739C3.664 27.682 3.779 27.569 3.836 27.512C3.893 27.455 3.893 27.398 3.95 27.342C4.008 27.284 4.008 27.171 4.008 27.114C4.008 26.944 3.95 26.829 3.893 26.716C3.836 26.602 3.721 26.546 3.664 26.432C3.56153 26.3883 3.46535 26.3311 3.378 26.262C3.263 26.204 3.148 26.204 3.092 26.147C3.034 26.147 2.977 26.091 2.92 26.091C2.863 26.091 2.805 26.034 2.748 26.034L1.775 25.806L1.26 25.636C1.088 25.579 0.973 25.466 0.859 25.408C0.744 25.295 0.629 25.238 0.573 25.068C0.501311 24.9268 0.462024 24.7714 0.458 24.613C0.458 24.385 0.515 24.215 0.63 24.101C0.741071 23.9401 0.902025 23.8203 1.088 23.76C1.26 23.646 1.488 23.59 1.718 23.59C1.947 23.533 2.176 23.533 2.348 23.533C2.634 23.533 2.978 23.589 3.263 23.646C3.55 23.703 3.893 23.874 4.179 24.101L4.065 24.215C3.95 24.101 3.779 24.045 3.665 23.987C3.492 23.931 3.378 23.874 3.206 23.817C3.034 23.76 2.92 23.76 2.748 23.703C2.576 23.703 2.462 23.646 2.348 23.646H1.947C1.832 23.646 1.66 23.703 1.546 23.703C1.431 23.76 1.26 23.817 1.145 23.873C1.031 23.931 0.916 24.044 0.802 24.158C0.744 24.215 0.744 24.272 0.687 24.385C0.63 24.442 0.63 24.555 0.63 24.613C0.63 24.783 0.687 24.897 0.744 25.011C0.802 25.124 0.916 25.181 1.031 25.295L1.374 25.465C1.489 25.522 1.604 25.579 1.718 25.579C1.775 25.579 1.832 25.636 1.889 25.636C1.947 25.636 2.004 25.693 2.061 25.693L2.863 25.92L3.378 26.09C3.55 26.147 3.664 26.261 3.778 26.318C3.893 26.432 4.008 26.545 4.065 26.658C4.237 26.602 4.294 26.773 4.294 26.943Z" fill="black"/>
<path opacity="0.397" d="M2.405 28.364C2.233 28.364 2.061 28.364 1.889 28.307C1.718 28.307 1.546 28.251 1.374 28.194L0.859 28.024C0.687 27.966 0.515 27.853 0.344 27.739L0 27.569L0.63 27L0.859 27.17C0.973 27.227 1.088 27.341 1.202 27.398C1.317 27.455 1.489 27.512 1.603 27.568C1.718 27.6251 1.889 27.625 2.003 27.682C2.29 27.739 2.519 27.739 2.748 27.682C2.863 27.682 3.034 27.625 3.148 27.625C3.263 27.568 3.378 27.568 3.492 27.512C3.55 27.455 3.664 27.398 3.722 27.342C3.722 27.342 3.779 27.284 3.779 27.227V27.114C3.779 27.057 3.779 26.944 3.721 26.886L3.55 26.716C3.48655 26.6558 3.40639 26.616 3.32 26.602C3.206 26.545 3.149 26.545 3.034 26.488C2.977 26.488 2.92 26.432 2.863 26.432L1.718 26.147C1.52474 26.0983 1.33358 26.0416 1.145 25.977C0.973 25.92 0.802 25.807 0.63 25.693C0.483914 25.5912 0.365653 25.4543 0.286 25.295C0.172 25.125 0.172 24.954 0.172 24.726C0.172 24.442 0.229 24.215 0.401 23.987C0.573 23.817 0.744 23.6471 0.973 23.5331C1.203 23.4191 1.431 23.363 1.66 23.305C2.233 23.192 2.805 23.248 3.378 23.362C3.721 23.476 4.065 23.646 4.408 23.874L4.695 24.101L4.122 24.669L3.893 24.499C3.779 24.442 3.664 24.329 3.55 24.272C3.435 24.215 3.32 24.158 3.149 24.102C2.977 23.931 2.863 23.874 2.749 23.874C2.52321 23.817 2.28679 23.817 2.061 23.874C1.947 23.874 1.832 23.931 1.661 23.931C1.546 23.987 1.431 23.987 1.317 24.044C1.23063 24.0863 1.15269 24.1439 1.087 24.214C1.087 24.214 1.031 24.272 1.031 24.328V24.442C1.031 24.499 1.031 24.612 1.088 24.612L1.26 24.7831C1.374 24.8401 1.431 24.897 1.546 24.953C1.66 25.011 1.775 25.011 1.832 25.067C1.889 25.067 1.947 25.124 2.004 25.124C2.061 25.124 2.118 25.181 2.176 25.181L2.977 25.4081C3.149 25.465 3.377 25.522 3.55 25.578C3.721 25.636 3.893 25.749 4.065 25.863C4.237 25.9771 4.351 26.147 4.408 26.261C4.523 26.431 4.58 26.659 4.58 26.829C4.58 27.114 4.466 27.341 4.294 27.569C4.122 27.739 3.95 27.909 3.721 28.023C3.492 28.137 3.263 28.193 3.034 28.251C2.863 28.364 2.634 28.364 2.404 28.364H2.405ZM10.935 23.987L10.821 24.101C10.625 23.9047 10.3913 23.7499 10.134 23.646C9.88285 23.5298 9.60872 23.4717 9.332 23.476C9.046 23.476 8.76 23.533 8.473 23.646C8.21569 23.7499 7.98202 23.9047 7.786 24.101C7.615 24.328 7.443 24.5561 7.328 24.7831C7.21612 25.0536 7.15771 25.3433 7.156 25.636C7.156 25.92 7.214 26.2041 7.328 26.488C7.443 26.7731 7.615 27 7.786 27.171C7.958 27.398 8.244 27.511 8.473 27.625C8.76 27.739 9.046 27.795 9.333 27.795C9.618 27.795 9.905 27.739 10.133 27.625C10.363 27.512 10.592 27.398 10.821 27.171L10.935 27.284C10.706 27.512 10.477 27.625 10.191 27.739C9.62131 27.9671 8.98569 27.9671 8.416 27.739C8.13 27.625 7.844 27.455 7.672 27.227C7.45002 27.0197 7.2742 26.7679 7.156 26.488C7.03901 26.1991 6.98087 25.8897 6.985 25.578C6.985 25.238 7.042 24.954 7.156 24.669C7.271 24.385 7.443 24.158 7.672 23.931C7.901 23.703 8.13 23.533 8.416 23.419C8.702 23.305 9.046 23.249 9.332 23.249C9.676 23.249 9.962 23.305 10.191 23.419C10.477 23.646 10.706 23.817 10.935 23.987Z" fill="black"/>
<path opacity="0.397" d="M9.332 28.3641C8.932 28.3641 8.588 28.3071 8.244 28.1371C7.901 28.0231 7.614 27.7961 7.385 27.5681C7.156 27.3411 6.927 27.0571 6.813 26.7161C6.698 26.3751 6.584 26.0341 6.584 25.6931C6.584 25.3521 6.641 24.9531 6.813 24.6691C6.927 24.3291 7.156 24.0441 7.385 23.8171C7.615 23.5891 7.901 23.3621 8.245 23.2481C8.57023 23.1076 8.92074 23.0352 9.275 23.0352C9.62926 23.0352 9.97977 23.1076 10.305 23.2481C10.592 23.3621 10.878 23.5331 11.107 23.7601L11.336 23.9871L10.763 24.5561L10.534 24.3281C10.3673 24.1642 10.1739 24.0299 9.962 23.9311C9.50023 23.7606 8.99277 23.7606 8.531 23.9311C8.301 24.0441 8.073 24.1581 7.958 24.3281C7.786 24.4981 7.672 24.7261 7.558 24.9541C7.44053 25.1824 7.38111 25.4363 7.385 25.6931C7.385 25.9201 7.443 26.2041 7.557 26.4321C7.672 26.6591 7.787 26.8861 7.958 27.0571C8.13 27.2271 8.302 27.3411 8.531 27.4551C8.931 27.6251 9.504 27.6821 9.961 27.4551C10.191 27.3411 10.363 27.2271 10.534 27.0571L10.764 26.8291L11.394 27.3981L11.164 27.6251C10.9217 27.8606 10.6275 28.036 10.305 28.1371C9.962 28.3071 9.675 28.3641 9.332 28.3641ZM17.118 27.9661H16.947V25.8061H13.74V27.9661H13.569V23.4201H13.74V25.6371H17.004V23.4201H17.176V27.9671L17.118 27.9661Z" fill="black"/>
<path opacity="0.397" d="M17.462 28.307H16.66V26.147H14.027V28.307H13.225V23.135H14.027V25.352H16.66V23.135H17.462V28.307ZM23.989 27.966H23.817L23.187 26.602H20.497L19.867 27.966H19.695L21.755 23.419H21.927L23.989 27.966ZM23.073 26.432L21.813 23.646L20.553 26.432H23.073Z" fill="black"/>
<path opacity="0.397" d="M24.447 28.307H23.531L22.901 26.943H20.611L20.038 28.307H19.122L21.527 23.135H22.099L24.447 28.307ZM21.011 26.147H22.557L21.813 24.442L21.011 26.147ZM29.828 23.59H26.622V25.579H29.485V25.749H26.622V27.966H26.45V23.42H29.828V23.59Z" fill="black"/>
<path opacity="0.397" d="M26.908 28.307H26.107V23.135H30.172V23.931H26.908V25.295H29.828V26.091H26.908V28.307ZM35.668 23.59H32.462V25.579H35.324V25.749H32.462V27.966H32.29V23.42H35.668V23.59Z" fill="black"/>
<path opacity="0.397" d="M32.805 28.307H31.947V23.135H36.011V23.931H32.805V25.295H35.668V26.091H32.805V28.307Z" fill="black"/>
<g opacity="0.397">
<path opacity="0.397" d="M41.737 27.966H41.565V25.806H38.302V27.966H38.13V23.42H38.302V25.637H41.565V23.42H41.737V27.966Z" fill="black"/>
<path opacity="0.397" d="M42.08 28.307H41.221V26.147H38.645V28.307H37.844V23.135H38.645V25.352H41.221V23.135H42.081L42.08 28.307Z" fill="black"/>
</g>
<g opacity="0.397">
<path opacity="0.397" d="M48.55 27.966H48.378L47.748 26.602H45.058L44.428 27.966H44.256L46.316 23.419H46.489L48.549 27.966H48.55ZM47.69 26.432L46.431 23.646L45.171 26.432H47.691H47.69Z" fill="black"/>
<path opacity="0.397" d="M49.065 28.307H48.149L47.519 26.943H45.229L44.599 28.307H43.683L46.088 23.135H46.66L49.065 28.307ZM45.63 26.147H47.176L46.374 24.442L45.63 26.147Z" fill="black"/>
</g>
<g opacity="0.397">
<path opacity="0.397" d="M54.962 23.476V26.147C54.962 26.432 54.905 26.659 54.79 26.887C54.676 27.114 54.561 27.341 54.39 27.512C54.218 27.682 53.989 27.852 53.76 27.909C53.53 28.023 53.244 28.08 53.015 28.08C52.729 28.08 52.5 28.023 52.271 27.91C52.042 27.796 51.813 27.682 51.641 27.512C51.469 27.342 51.298 27.114 51.241 26.886C51.13 26.6553 51.0713 26.403 51.069 26.147V23.476H51.24V26.147C51.24 26.375 51.298 26.602 51.355 26.829C51.469 27.057 51.584 27.227 51.755 27.398C51.927 27.568 52.099 27.682 52.328 27.796C52.558 27.909 52.786 27.909 53.015 27.909C53.245 27.909 53.473 27.853 53.702 27.796C53.932 27.739 54.103 27.568 54.275 27.398C54.447 27.228 54.561 27.057 54.675 26.829C54.79 26.602 54.79 26.375 54.79 26.147V23.42H54.962V23.477V23.476Z" fill="black"/>
<path opacity="0.397" d="M53.015 28.364C52.672 28.364 52.385 28.307 52.099 28.194C51.813 28.08 51.584 27.909 51.355 27.739C51.126 27.512 51.011 27.284 50.897 27C50.7851 26.7295 50.7267 26.4398 50.725 26.147V23.135H51.527V26.147C51.527 26.317 51.584 26.545 51.641 26.716C51.698 26.886 51.813 27.056 51.927 27.171C52.042 27.284 52.214 27.398 52.385 27.455C52.729 27.625 53.13 27.625 53.531 27.455C53.702 27.398 53.874 27.285 53.989 27.171C54.103 27.057 54.218 26.886 54.275 26.716C54.332 26.546 54.389 26.375 54.389 26.147V23.135H55.191V26.147C55.191 26.432 55.134 26.773 55.019 27C54.905 27.284 54.733 27.512 54.561 27.739C54.332 27.966 54.103 28.08 53.817 28.251C53.5551 28.3205 53.2859 28.3584 53.015 28.364Z" fill="black"/>
</g>
<g opacity="0.397">
<path opacity="0.397" d="M61.489 26.943C61.489 27.171 61.431 27.341 61.317 27.455C61.2058 27.6155 61.0448 27.735 60.859 27.795C60.687 27.909 60.458 27.966 60.229 27.966C60 28.023 59.771 28.023 59.599 28.023H59.141C58.969 28.023 58.798 27.966 58.626 27.909L58.111 27.739C57.939 27.682 57.767 27.569 57.653 27.512L57.767 27.398C57.882 27.512 58.053 27.568 58.167 27.625C58.34 27.682 58.454 27.739 58.626 27.795C58.798 27.853 58.912 27.853 59.084 27.909C59.256 27.966 59.37 27.966 59.484 27.966H59.885C60.057 27.966 60.172 27.909 60.344 27.909C60.458 27.853 60.63 27.796 60.744 27.739C60.859 27.682 60.974 27.569 61.031 27.512C61.088 27.455 61.088 27.398 61.145 27.342C61.202 27.284 61.202 27.171 61.202 27.114C61.202 26.944 61.145 26.829 61.088 26.716C61.031 26.602 60.916 26.546 60.858 26.432C60.7559 26.3882 60.66 26.3311 60.573 26.262C60.458 26.204 60.343 26.204 60.286 26.147C60.229 26.147 60.172 26.091 60.115 26.091C60.057 26.091 60 26.034 59.943 26.034L58.969 25.806L58.454 25.636C58.282 25.579 58.168 25.466 58.054 25.408C57.939 25.295 57.824 25.238 57.767 25.068C57.6957 24.9267 57.6567 24.7713 57.653 24.613C57.653 24.385 57.71 24.215 57.824 24.101C57.9351 23.9401 58.096 23.8203 58.282 23.76C58.454 23.646 58.683 23.59 58.912 23.59C59.142 23.533 59.37 23.533 59.542 23.533C59.828 23.533 60.172 23.589 60.458 23.646C60.744 23.703 61.088 23.874 61.374 24.101L61.26 24.215C61.145 24.101 60.973 24.045 60.859 23.987C60.687 23.931 60.573 23.874 60.401 23.817C60.229 23.76 60.115 23.76 59.943 23.703C59.771 23.703 59.656 23.646 59.542 23.646H59.142C59.027 23.646 58.855 23.703 58.74 23.703C58.626 23.76 58.454 23.817 58.34 23.873C58.225 23.931 58.11 24.044 57.996 24.158C57.939 24.215 57.939 24.272 57.882 24.385C57.824 24.442 57.824 24.555 57.824 24.613C57.824 24.783 57.882 24.897 57.939 25.011C57.996 25.124 58.111 25.181 58.225 25.295L58.569 25.465C58.683 25.522 58.798 25.579 58.912 25.579C58.969 25.579 59.027 25.636 59.084 25.636C59.141 25.636 59.198 25.693 59.256 25.693L60.057 25.92L60.573 26.09C60.744 26.147 60.859 26.261 60.973 26.318C61.088 26.432 61.203 26.545 61.26 26.658C61.431 26.602 61.489 26.773 61.489 26.943Z" fill="black"/>
<path opacity="0.397" d="M59.6 28.364C59.427 28.364 59.256 28.364 59.084 28.307C58.912 28.307 58.74 28.251 58.569 28.194L58.053 28.024C57.882 27.966 57.71 27.853 57.538 27.739L57.195 27.512L57.825 26.943L58.053 27.113C58.168 27.171 58.283 27.284 58.397 27.341C58.511 27.398 58.683 27.455 58.797 27.511C58.912 27.568 59.084 27.568 59.198 27.625C59.485 27.682 59.714 27.682 59.943 27.625C60.057 27.625 60.229 27.568 60.343 27.568C60.458 27.512 60.573 27.512 60.687 27.455C60.744 27.398 60.859 27.341 60.916 27.285C60.916 27.285 60.973 27.227 60.973 27.171V27.057C60.973 27 60.973 26.887 60.916 26.829L60.744 26.659C60.6808 26.5989 60.601 26.5592 60.515 26.545C60.401 26.488 60.344 26.488 60.229 26.432C60.172 26.432 60.115 26.375 60.057 26.375L58.912 26.091C58.683 26.034 58.512 25.977 58.34 25.92C58.168 25.863 57.996 25.75 57.824 25.636C57.6783 25.534 57.5604 25.3972 57.481 25.238C57.366 25.068 57.366 24.897 57.366 24.669C57.366 24.385 57.424 24.158 57.596 23.931C57.767 23.76 57.939 23.589 58.168 23.476C58.397 23.362 58.626 23.306 58.855 23.248C59.427 23.135 60 23.192 60.573 23.305C60.916 23.419 61.26 23.589 61.603 23.817L61.889 24.044L61.317 24.613L61.087 24.443C60.973 24.385 60.859 24.272 60.744 24.215C60.6153 24.1481 60.4815 24.0912 60.344 24.045C60.229 23.987 60.057 23.987 59.943 23.987C59.713 23.931 59.542 23.931 59.256 23.987C59.141 23.987 59.026 24.044 58.855 24.044C58.74 24.101 58.626 24.101 58.511 24.158C58.425 24.2003 58.3474 24.2579 58.282 24.328C58.282 24.328 58.225 24.385 58.225 24.442V24.556C58.225 24.613 58.225 24.726 58.282 24.726L58.454 24.896C58.569 24.954 58.626 25.011 58.74 25.067C58.855 25.124 58.97 25.124 59.027 25.181C59.084 25.181 59.141 25.238 59.198 25.238C59.256 25.238 59.313 25.295 59.37 25.295L60.172 25.522C60.344 25.579 60.572 25.636 60.744 25.692C60.916 25.749 61.088 25.863 61.26 25.977C61.431 26.091 61.546 26.261 61.603 26.375C61.718 26.545 61.775 26.773 61.775 26.943C61.775 27.227 61.66 27.455 61.489 27.683C61.317 27.853 61.145 28.023 60.916 28.137C60.687 28.251 60.458 28.307 60.229 28.364H59.599H59.6Z" fill="black"/>
</g>
<g opacity="0.397">
<path opacity="0.397" d="M67.672 27.966H64.237V23.42H67.672V23.59H64.408V25.58H67.328V25.75H64.408V27.854H67.672V27.966Z" fill="black"/>
<path opacity="0.397" d="M67.958 28.307H63.893V23.135H67.958V23.931H64.695V25.295H67.615V26.091H64.695V27.511H67.958V28.307Z" fill="black"/>
</g>
<g opacity="0.397">
<path opacity="0.397" d="M74.084 27.966H73.912L70.477 23.703V27.966H70.305V23.42H70.477L73.912 27.683V23.42H74.084V27.966Z" fill="black"/>
<path opacity="0.397" d="M74.427 28.307H73.74L70.763 24.613L70.821 28.307H69.961V23.135H70.649L73.626 26.829V23.135H74.427V28.307Z" fill="black"/>
</g>
</g>
</g>
<defs>
<clipPath id="clip0_1_748">
<rect width="75" height="29" fill="white"/>
</clipPath>
</defs>
</svg>
