<svg width="170" height="30" viewBox="0 0 170 30" fill="none" xmlns="http://www.w3.org/2000/svg">
<path opacity="0.397" fill-rule="evenodd" clip-rule="evenodd" d="M60.931 10.863C60.931 10.59 61.119 10.445 61.355 10.445C61.755 10.445 62.359 10.863 62.699 11.699C62.577 11.699 62.393 11.735 62.27 11.735C61.542 11.735 60.931 11.395 60.931 10.863ZM16.905 10.863C16.905 10.59 17.085 10.445 17.331 10.445C17.721 10.445 18.3 10.863 18.636 11.699C17.512 11.699 16.905 11.459 16.905 10.863V10.863ZM25.396 6.543C25.396 2.071 26.281 1.384 26.556 1.384C27.043 1.384 27.101 1.684 27.101 3.399C27.101 5.161 26.339 7.467 25.396 8.733V6.543ZM56.307 10.953C55.784 11.671 55.359 12.693 55.359 14.008C55.359 16.528 56.818 18.933 59.653 18.933C62.393 18.933 64.313 16.8 64.313 13.826C64.313 12.963 64.28 12.843 64.223 12.485C64.86 12.212 65.409 11.794 65.837 11.459C66.201 11.189 66.473 11.039 66.69 11.039C66.963 11.039 67.083 11.249 67.083 11.639V17.523C67.083 18.481 67.391 18.933 68.149 18.933C68.847 18.933 69.339 18.45 69.611 17.881C70.618 15.811 72.077 13.051 72.714 12.004C72.867 11.764 72.992 11.58 73.079 11.58C73.201 11.58 73.264 11.671 73.264 12.06V16.744C73.264 18.062 73.875 18.934 75.21 18.934C76.613 18.934 77.31 17.609 78.537 15.57C78.5873 15.4787 78.6161 15.3771 78.621 15.273C78.621 15.003 78.383 14.849 78.138 14.849C77.862 14.849 77.709 15.122 76.798 16.109C76.613 16.296 76.434 16.557 76.096 16.557C75.976 16.557 75.882 16.412 75.882 16.229V10.977C75.882 9.567 75.242 8.997 74.42 8.997C73.752 8.997 73.201 9.268 72.623 10.108C71.588 11.612 70.523 13.743 69.946 14.818C69.881 14.943 69.793 15.122 69.734 15.122C69.67 15.122 69.644 15.029 69.644 14.817V10.977C69.644 9.87 69.339 8.997 68.149 8.997C66.899 8.997 66.261 9.839 65.348 10.468C64.8825 10.8171 64.3834 11.1189 63.858 11.369C63.246 9.839 62.121 9.064 61.178 9.087C60.23 9.119 59.561 9.693 59.561 10.653C59.561 11.638 60.173 12.324 60.991 12.629C61.446 12.809 61.874 12.843 62.486 12.843C62.67 12.843 62.851 12.843 62.969 12.809C63.034 13.109 63.004 13.534 63.004 13.862C63.004 15.335 62.121 16.8 60.479 16.8C58.769 16.8 57.769 15.18 57.769 13.322C57.769 11.91 58.193 10.742 58.888 9.935C59.169 9.633 59.378 9.45 59.378 9.173C59.378 9.033 59.169 8.998 58.984 8.998C57.824 8.998 56.549 9.51 55.668 9.958C54.505 10.558 53.138 11.552 52.01 12.541C51.462 11.338 50.793 10.288 50.456 9.475C50.335 9.145 50.246 8.763 50.002 8.763C49.786 8.763 49.692 8.973 49.543 9.386C48.997 10.977 46.072 15.631 45.433 16.261C45.372 16.347 45.283 16.441 45.254 16.441C45.188 16.441 45.154 16.412 45.154 16.229V10.977C45.154 9.567 44.576 8.997 43.79 8.997C43.117 8.997 42.54 9.268 41.993 10.108C40.99 11.612 39.767 13.802 39.19 14.879C39.097 15.065 39.005 15.122 38.974 15.122C38.944 15.122 38.919 15.002 38.919 14.817V10.977C38.919 9.567 38.338 8.997 37.545 8.997C36.874 8.997 36.238 9.244 35.717 10.108C34.441 12.241 32.311 15.511 31.914 16.048C31.8699 16.1233 31.8068 16.1857 31.731 16.229C31.671 16.229 31.635 16.171 31.635 16.022V10.977C31.635 9.567 31.058 8.997 30.271 8.997C29.173 8.997 28.567 9.993 28.167 10.619C27.617 11.489 26.889 12.661 26.312 13.743C25.915 14.467 25.578 15.122 25.455 15.122C25.396 15.122 25.396 14.849 25.396 14.342V10.322C27.312 8.218 28.501 5.641 28.501 2.821C28.501 1.198 27.773 0.302 26.649 0.302C24.543 0.302 22.933 3.543 22.933 7.38V10.5C21.957 11.101 21.043 11.394 19.914 11.612C19.338 9.935 18.117 9.064 17.147 9.087C16.205 9.119 15.532 9.693 15.532 10.653C15.532 12.241 17.116 12.901 18.514 12.901H18.91C18.97 13.203 18.97 13.534 18.97 13.862C18.97 15.335 18.087 16.8 16.447 16.8C14.743 16.8 13.735 15.18 13.735 13.322C13.735 11.91 14.157 10.742 14.858 9.935C15.135 9.633 15.35 9.363 15.35 9.173C15.35 9.033 15.135 8.998 14.95 8.998C13.794 8.998 11.239 10.534 8.192 13.534C7.922 11.133 7.615 8.791 7.615 6.51C7.615 3.961 8.127 1.796 8.249 1.172C8.31 0.785 8.349 0.542 8.349 0.365C8.348 0.124 8.218 0 7.89 0C5.42 0 0 3.872 0 9.662C0 13.768 1.526 15.749 4.17 18.299C2.565 20.849 1.277 23.879 1.277 26.579C1.277 28.526 1.739 30 3.197 30C6.242 30 8.524 23.764 8.524 19.14C8.524 17.762 8.468 16.38 8.348 15.003C9.471 13.826 11.208 12.241 11.631 12.091C11.449 12.722 11.327 13.384 11.327 14.008C11.327 16.528 12.792 18.933 15.621 18.933C18.274 18.933 20.281 16.8 20.281 13.826C20.281 13.442 20.249 13.108 20.221 12.75C21.191 12.57 22.084 12.324 22.933 11.822V17.852C22.933 18.628 23.478 18.933 23.996 18.933C24.7 18.933 25.065 18.45 25.578 17.346C26.008 16.442 27.162 14.374 27.862 13.14C28.413 12.177 28.718 11.552 28.963 11.552C29.02 11.552 29.085 11.699 29.085 12.059V17.191C29.085 18.571 29.816 18.933 30.449 18.933C31.058 18.933 31.456 18.603 31.853 18.062C33.438 15.84 35.115 13.203 35.78 12.059C35.903 11.854 36.054 11.699 36.177 11.699C36.296 11.699 36.357 11.764 36.357 12.149V17.523C36.357 18.481 36.662 18.933 37.427 18.933C38.123 18.933 38.579 18.45 38.851 17.881C39.863 15.811 41.351 13.079 41.993 12.004C42.143 11.764 42.296 11.552 42.386 11.552C42.513 11.552 42.541 11.699 42.541 12.092V17.191C42.541 18.571 43.271 18.933 43.915 18.933C44.761 18.933 45.315 18.33 45.862 17.643C46.861 16.347 48.324 14.047 49.209 12.57C49.515 13.052 49.847 13.623 50.125 14.252C49.393 15.122 48.661 16.109 48.661 17.158C48.661 18.269 49.453 18.933 50.276 18.933C51.674 18.933 52.951 17.609 52.951 15.783C52.951 15.065 52.741 14.313 52.47 13.594C53.711 12.391 55.206 11.221 56.307 10.952V10.953ZM6.148 17.491C6.395 19.079 6.608 20.643 6.608 21.871C6.608 24.745 5.637 28.107 3.961 28.079C3.314 28.079 2.77 27.442 2.743 26.338C2.681 22.741 4.417 19.68 6.148 17.491ZM50.608 15.446C50.793 15.962 50.886 16.379 50.886 16.799C50.886 17.28 50.702 17.761 50.366 17.761C50.126 17.761 49.881 17.491 49.881 17.07C49.881 16.618 50.276 15.898 50.608 15.446V15.446ZM7.248 1.14C7.248 1.323 6.821 2.16 6.275 3.662C5.52084 5.72713 5.13827 7.90948 5.145 10.108C5.145 11.698 5.544 13.802 5.881 15.93L4.906 17.225C3.35 15.36 2.378 13.264 2.378 9.662C2.378 4.563 5.514 1.027 7.125 1.027C7.221 1.027 7.248 1.053 7.248 1.14V1.14ZM151.829 10.863C151.829 10.59 152.009 10.445 152.256 10.445C152.652 10.445 153.267 10.863 153.604 11.699C153.484 11.699 153.3 11.735 153.171 11.735C152.441 11.735 151.829 11.395 151.829 10.863ZM107.447 10.863C107.447 10.59 107.634 10.445 107.877 10.445C108.277 10.445 108.865 10.863 109.196 11.699C108.061 11.699 107.446 11.459 107.446 10.863H107.447ZM116.011 6.543C116.011 2.071 116.897 1.384 117.176 1.384C117.666 1.384 117.728 1.684 117.728 3.399C117.728 5.161 116.958 7.467 116.011 8.733V6.543V6.543ZM96.617 17.492C96.855 19.08 97.079 20.644 97.079 21.872C97.079 24.746 96.099 28.108 94.406 28.08C93.762 28.08 93.21 27.443 93.179 26.339C93.116 22.742 94.869 19.681 96.617 17.492V17.492ZM141.425 15.447C141.612 15.963 141.7 16.38 141.7 16.8C141.7 17.281 141.516 17.762 141.178 17.762C140.936 17.762 140.683 17.492 140.683 17.071C140.683 16.619 141.086 15.899 141.425 15.447ZM97.716 1.14C97.716 1.323 97.291 2.16 96.735 3.662C95.9785 5.72669 95.5939 7.9091 95.599 10.108C95.599 11.698 96.009 13.802 96.344 15.93L95.359 17.225C93.796 15.36 92.809 13.264 92.809 9.662C92.809 4.563 95.976 1.027 97.6 1.027C97.69 1.027 97.716 1.053 97.716 1.14V1.14ZM92.599 16.14C93.148 16.86 93.825 17.55 94.622 18.3C92.994 20.85 91.707 23.878 91.707 26.58C91.707 28.526 92.17 30 93.644 30C96.71 30 99.009 23.764 99.009 19.14C99.009 17.762 98.949 16.38 98.826 15.003C99.964 13.826 101.707 12.241 102.143 12.091C101.958 12.722 101.83 13.384 101.83 14.008C101.83 16.528 103.305 18.933 106.162 18.933C108.829 18.933 110.854 16.8 110.854 13.826C110.854 13.442 110.826 13.108 110.792 12.75C111.776 12.57 112.672 12.324 113.526 11.822V17.852C113.526 18.628 114.076 18.933 114.594 18.933C115.309 18.933 115.677 18.45 116.196 17.346C116.624 16.442 117.793 14.374 118.5 13.14C119.05 12.177 119.358 11.552 119.61 11.552C119.667 11.552 119.724 11.699 119.724 12.059V17.191C119.724 18.571 120.459 18.933 121.104 18.933C121.72 18.933 122.115 18.603 122.523 18.062C124.113 15.84 125.803 13.203 126.477 12.059C126.6 11.854 126.756 11.699 126.875 11.699C126.995 11.699 127.062 11.764 127.062 12.149V17.523C127.062 18.481 127.365 18.933 128.132 18.933C128.838 18.933 129.298 18.45 129.577 17.881C130.59 15.811 132.093 13.079 132.735 12.004C132.892 11.764 133.045 11.552 133.14 11.552C133.26 11.552 133.294 11.699 133.294 12.092V17.191C133.294 18.571 134.024 18.933 134.667 18.933C135.532 18.933 136.085 18.33 136.633 17.643C137.646 16.347 139.123 14.047 140.012 12.57C140.315 13.052 140.657 13.623 140.936 14.252C140.191 15.122 139.462 16.109 139.462 17.158C139.462 18.269 140.251 18.933 141.086 18.933C142.496 18.933 143.783 17.609 143.783 15.783C143.783 15.065 143.569 14.313 143.293 13.594C144.55 12.391 146.055 11.221 147.16 10.952C146.638 11.672 146.208 12.692 146.208 14.008C146.208 16.528 147.683 18.933 150.538 18.933C153.3 18.933 155.228 16.8 155.228 13.826C155.228 12.963 155.2 12.843 155.143 12.485C155.78 12.212 156.336 11.794 156.771 11.459C157.131 11.189 157.413 11.039 157.624 11.039C157.901 11.039 158.031 11.249 158.031 11.639V17.523C158.031 18.481 158.333 18.933 159.101 18.933C159.804 18.933 160.298 18.45 160.575 17.881C161.582 15.811 163.058 13.051 163.7 12.004C163.853 11.764 163.979 11.58 164.071 11.58C164.196 11.58 164.256 11.671 164.256 12.06V16.744C164.256 18.062 164.864 18.934 166.218 18.934C167.634 18.934 168.338 17.609 169.568 15.57C169.619 15.4787 169.648 15.3772 169.655 15.273C169.655 15.003 169.409 14.849 169.165 14.849C168.891 14.849 168.735 15.122 167.816 16.109C167.634 16.296 167.447 16.557 167.111 16.557C166.984 16.557 166.898 16.412 166.898 16.229V10.977C166.898 9.567 166.245 8.997 165.418 8.997C164.746 8.997 164.196 9.268 163.611 10.108C162.565 11.612 161.494 13.743 160.915 14.818C160.849 14.943 160.759 15.122 160.694 15.122C160.629 15.122 160.604 15.029 160.604 14.817V10.977C160.604 9.87 160.298 8.997 159.101 8.997C157.839 8.997 157.198 9.839 156.279 10.468C155.689 10.893 155.172 11.189 154.769 11.369C154.161 9.839 153.021 9.064 152.075 9.087C151.118 9.119 150.449 9.693 150.449 10.653C150.449 11.638 151.063 12.324 151.884 12.629C152.345 12.809 152.775 12.843 153.397 12.843C153.577 12.843 153.755 12.843 153.886 12.809C153.946 13.109 153.914 13.534 153.914 13.862C153.914 15.335 153.021 16.8 151.363 16.8C149.645 16.8 148.637 15.18 148.637 13.322C148.637 11.91 149.063 10.742 149.767 9.935C150.046 9.633 150.263 9.45 150.263 9.173C150.263 9.033 150.046 8.998 149.862 8.998C148.701 8.998 147.408 9.51 146.518 9.958C145.35 10.558 143.968 11.552 142.837 12.541C142.283 11.338 141.612 10.288 141.27 9.475C141.143 9.145 141.06 8.763 140.805 8.763C140.593 8.763 140.499 8.973 140.348 9.386C139.794 10.977 136.85 15.631 136.206 16.261C136.144 16.347 136.052 16.441 136.02 16.441C135.962 16.441 135.928 16.412 135.928 16.229V10.977C135.928 9.567 135.349 8.997 134.544 8.997C133.868 8.997 133.294 9.268 132.735 10.108C131.721 11.612 130.496 13.802 129.913 14.879C129.823 15.065 129.733 15.122 129.703 15.122C129.668 15.122 129.637 15.002 129.637 14.817V10.977C129.637 9.567 129.057 8.997 128.259 8.997C127.582 8.997 126.933 9.244 126.416 10.108C125.123 12.241 122.978 15.511 122.576 16.048C122.535 16.1259 122.471 16.1892 122.392 16.229C122.337 16.229 122.302 16.171 122.302 16.022V10.977C122.302 9.567 121.72 8.997 120.919 8.997C119.811 8.997 119.202 9.993 118.8 10.619C118.248 11.489 117.516 12.661 116.93 13.743C116.534 14.467 116.196 15.122 116.073 15.122C116.011 15.122 116.011 14.849 116.011 14.342V10.322C117.947 8.218 119.14 5.641 119.14 2.821C119.14 1.198 118.405 0.302 117.266 0.302C115.151 0.302 113.526 3.543 113.526 7.38V10.5C112.541 11.101 111.621 11.394 110.483 11.612C109.904 9.935 108.676 9.064 107.7 9.087C106.742 9.119 106.07 9.693 106.07 10.653C106.07 12.241 107.66 12.901 109.075 12.901H109.477C109.533 13.203 109.533 13.534 109.533 13.862C109.533 15.335 108.646 16.8 106.988 16.8C105.268 16.8 104.26 15.18 104.26 13.322C104.26 11.91 104.69 10.742 105.39 9.935C105.665 9.633 105.882 9.363 105.882 9.173C105.882 9.033 105.665 8.998 105.484 8.998C104.316 8.998 101.74 10.534 98.667 13.534C98.397 11.133 98.087 8.791 98.087 6.51C98.087 3.961 98.609 1.796 98.732 1.172C98.792 0.785 98.826 0.542 98.826 0.365C98.826 0.124 98.701 0 98.369 0C95.883 0 90.419 3.872 90.419 9.662C90.419 12.028 90.941 13.712 91.861 15.18C91.518 15.122 91.249 15.122 90.997 15.122C90.019 15.122 89.095 15.36 88.521 15.482V14.879C88.521 13.594 88.21 11.822 87.656 11.221C87.589 11.1621 87.5022 11.1307 87.413 11.133C87.161 11.133 86.858 11.249 86.522 11.431C86.15 11.611 85.782 11.794 85.782 11.911C85.782 11.968 85.782 12.028 85.874 12.177C86.091 12.485 86.675 13.079 86.886 14.493C85.84 13.472 84.649 13.019 83.09 13.019C81.245 13.019 80.69 13.826 80.69 14.641C80.69 16.201 82.808 16.981 85.482 16.981C85.972 16.981 86.522 16.89 87.072 16.767C87.072 17.248 87.134 17.674 87.134 18.031C87.134 18.541 87.223 18.933 87.564 18.933C88.084 18.933 88.394 17.909 88.453 16.442C89.403 16.2 90.388 15.993 91.219 15.993C91.616 15.993 92.113 16.047 92.599 16.14V16.14ZM86.554 15.84C86.037 15.9 85.722 15.9 85.174 15.9C83.974 15.9 83.09 15.447 83.09 14.793C83.09 14.374 83.302 14.13 83.916 14.13C84.899 14.13 85.693 14.793 86.554 15.84Z" fill="#110606"/>
</svg>
