<svg width="120" height="58" viewBox="0 0 120 58" fill="none" xmlns="http://www.w3.org/2000/svg">
<path fill-rule="evenodd" clip-rule="evenodd" d="M15.4262 7.86633H43.4418V7.9744L38.0386 13.5127H15.4262C12.7246 13.5127 10.2391 14.5663 8.48305 16.3494C6.72701 18.2405 5.64637 20.5909 5.64637 23.2925C5.64637 25.9941 6.69999 28.4796 8.48305 30.2356C10.2391 31.9917 12.7246 33.1804 15.4262 33.1804H25.206C25.9084 32.2348 27.0971 31.6405 28.3939 31.6405C30.7443 31.6405 32.6354 33.6397 32.6354 35.882C32.6354 38.2324 30.7443 40.2316 28.3939 40.2316C27.0971 40.2316 25.9084 39.6372 25.206 38.6917H15.4262C11.1846 38.6917 7.29434 37.0437 4.59273 34.207C1.75604 31.3703 0 27.507 0 23.2655C0 19.024 1.75604 15.2687 4.59273 12.432C7.32136 9.62238 11.1846 7.86633 15.4262 7.86633ZM28.3939 51.3082H0.13508L5.78145 45.7699H28.3939C31.0955 45.7699 33.4459 44.5812 35.337 42.8251C37.0931 41.0691 38.1737 38.5836 38.1737 35.882C38.1737 33.2885 37.1201 30.83 35.337 29.0469C33.4459 27.2909 31.0955 26.1022 28.3939 26.1022H18.6141C17.9117 27.0477 16.7229 27.507 15.4262 27.507C13.0758 27.507 11.1847 25.6159 11.1847 23.2655C11.1847 20.9151 13.0758 19.024 15.4262 19.024C16.7229 19.024 17.9117 19.6183 18.6141 20.4288H28.3939C32.6354 20.4288 36.3906 22.1849 39.2273 25.0215C42.064 27.8312 43.8201 31.6135 43.8201 35.855C43.8201 40.2046 42.064 43.9868 39.2273 46.7965C36.3906 49.6332 32.6354 51.3082 28.3939 51.3082Z" fill="#009789"/>
<path d="M51.2413 7.88867H55.0421V28H51.2413V7.88867ZM58.9523 13.125H62.671V14.6426C63.5187 13.9316 64.2843 13.4395 64.9679 13.166C65.6606 12.8835 66.367 12.7422 67.087 12.7422C68.5636 12.7422 69.8168 13.2572 70.8468 14.2871C71.7127 15.1621 72.1456 16.4564 72.1456 18.1699V28H68.4542V21.4785C68.4542 19.7012 68.3722 18.5208 68.2081 17.9375C68.0532 17.3542 67.7752 16.9121 67.3741 16.6113C66.9822 16.3014 66.4946 16.1465 65.9112 16.1465C65.1547 16.1465 64.503 16.4017 63.9562 16.9121C63.4184 17.4134 63.0447 18.1107 62.8351 19.0039C62.7257 19.4688 62.671 20.4759 62.671 22.0254V28H58.9523V13.125ZM73.9913 13.125H75.3175C75.3266 11.1745 75.3585 10.0215 75.4132 9.66602C75.5135 8.8457 75.8553 8.19857 76.4386 7.72461C77.031 7.24154 77.865 7 78.9405 7C79.7153 7 80.5903 7.17773 81.5655 7.5332V10.377C81.0278 10.222 80.5857 10.1445 80.2394 10.1445C79.8019 10.1445 79.4829 10.2357 79.2823 10.418C79.1365 10.5547 79.0636 10.8372 79.0636 11.2656L79.0499 13.125H81.4151V16.2969H79.0499V28H75.3175V16.2969H73.9913V13.125ZM90.6026 12.7422C92.0063 12.7422 93.3233 13.0931 94.5538 13.7949C95.7934 14.4967 96.7595 15.4492 97.4523 16.6523C98.145 17.8555 98.4913 19.1543 98.4913 20.5488C98.4913 21.9525 98.1404 23.265 97.4386 24.4863C96.7459 25.7077 95.798 26.6647 94.5948 27.3574C93.3917 28.041 92.0655 28.3828 90.6163 28.3828C88.4835 28.3828 86.6606 27.6263 85.1476 26.1133C83.6437 24.5911 82.8917 22.7454 82.8917 20.5762C82.8917 18.252 83.7439 16.3151 85.4483 14.7656C86.9431 13.4167 88.6612 12.7422 90.6026 12.7422ZM90.6573 16.2559C89.4998 16.2559 88.5336 16.6615 87.7589 17.4727C86.9933 18.2747 86.6105 19.3047 86.6105 20.5625C86.6105 21.8568 86.9887 22.9049 87.7452 23.707C88.5108 24.5091 89.477 24.9102 90.6437 24.9102C91.8103 24.9102 92.781 24.5046 93.5558 23.6934C94.3305 22.8822 94.7179 21.8385 94.7179 20.5625C94.7179 19.2865 94.3351 18.252 93.5694 17.459C92.8129 16.6569 91.8422 16.2559 90.6573 16.2559Z" fill="#213346"/>
<path d="M62.0558 33.0973L59.2257 35.5992C58.2322 34.2138 57.2205 33.5211 56.1905 33.5211C55.6892 33.5211 55.2791 33.6578 54.9601 33.9313C54.6411 34.1956 54.4816 34.4964 54.4816 34.8336C54.4816 35.1709 54.5955 35.4899 54.8233 35.7906C55.1332 36.1917 56.0675 37.053 57.6261 38.3746C59.0844 39.596 59.9685 40.3662 60.2784 40.6852C61.0532 41.469 61.6 42.221 61.9191 42.941C62.2472 43.652 62.4112 44.4313 62.4112 45.2789C62.4112 46.9287 61.8416 48.2913 60.7023 49.3668C59.5629 50.4423 58.0773 50.9801 56.2452 50.9801C54.8142 50.9801 53.5655 50.6292 52.4991 49.9274C51.4418 49.2255 50.5349 48.1227 49.7784 46.6188L52.9913 44.6774C53.9575 46.4547 55.0694 47.3434 56.3273 47.3434C56.9835 47.3434 57.5349 47.152 57.9816 46.7692C58.4282 46.3864 58.6515 45.9443 58.6515 45.443C58.6515 44.9873 58.4829 44.5315 58.1456 44.0758C57.8084 43.6201 57.0655 42.9228 55.9171 41.984C53.7296 40.1976 52.3168 38.8212 51.6788 37.8551C51.0408 36.8798 50.7218 35.9091 50.7218 34.943C50.7218 33.5485 51.2504 32.3545 52.3077 31.361C53.3741 30.3584 54.6866 29.8571 56.2452 29.8571C57.2478 29.8571 58.2003 30.0895 59.1026 30.5543C60.0141 31.0192 60.9985 31.8668 62.0558 33.0973ZM80.5812 44.1168H68.5909C68.7641 45.1741 69.2244 46.0172 69.9718 46.6461C70.7283 47.2659 71.6899 47.5758 72.8566 47.5758C74.2511 47.5758 75.4497 47.0882 76.4523 46.1129L79.5968 47.5895C78.8129 48.7015 77.8741 49.5263 76.7804 50.0641C75.6866 50.5927 74.3878 50.8571 72.8839 50.8571C70.5506 50.8571 68.6502 50.1233 67.1827 48.6559C65.7153 47.1793 64.9816 45.3336 64.9816 43.1188C64.9816 40.8492 65.7107 38.9671 67.1691 37.4723C68.6365 35.9684 70.4731 35.2164 72.6788 35.2164C75.0213 35.2164 76.9262 35.9684 78.3937 37.4723C79.8611 38.9671 80.5948 40.9449 80.5948 43.4059L80.5812 44.1168ZM76.8351 41.1774C76.589 40.3479 76.1013 39.6735 75.3722 39.1539C74.6521 38.6344 73.8136 38.3746 72.8566 38.3746C71.8175 38.3746 70.906 38.6663 70.1222 39.2496C69.63 39.6142 69.1743 40.2568 68.755 41.1774H76.8351ZM98.5187 44.1168H86.5284C86.7016 45.1741 87.1619 46.0172 87.9093 46.6461C88.6658 47.2659 89.6274 47.5758 90.7941 47.5758C92.1886 47.5758 93.3872 47.0882 94.3898 46.1129L97.5343 47.5895C96.7504 48.7015 95.8116 49.5263 94.7179 50.0641C93.6241 50.5927 92.3253 50.8571 90.8214 50.8571C88.4881 50.8571 86.5877 50.1233 85.1202 48.6559C83.6528 47.1793 82.9191 45.3336 82.9191 43.1188C82.9191 40.8492 83.6482 38.9671 85.1066 37.4723C86.574 35.9684 88.4106 35.2164 90.6163 35.2164C92.9588 35.2164 94.8637 35.9684 96.3312 37.4723C97.7986 38.9671 98.5323 40.9449 98.5323 43.4059L98.5187 44.1168ZM94.7726 41.1774C94.5265 40.3479 94.0388 39.6735 93.3097 39.1539C92.5896 38.6344 91.7511 38.3746 90.7941 38.3746C89.755 38.3746 88.8435 38.6663 88.0597 39.2496C87.5675 39.6142 87.1118 40.2568 86.6925 41.1774H94.7726ZM112.546 29.8571H116.265V50.4742H112.546V48.902C111.817 49.5947 111.083 50.096 110.345 50.4059C109.616 50.7067 108.823 50.8571 107.966 50.8571C106.043 50.8571 104.379 50.1142 102.976 48.6285C101.572 47.1337 100.87 45.2789 100.87 43.0641C100.87 40.7672 101.549 38.8851 102.907 37.4176C104.265 35.9502 105.915 35.2164 107.857 35.2164C108.75 35.2164 109.588 35.3851 110.372 35.7223C111.156 36.0595 111.881 36.5654 112.546 37.2399V29.8571ZM108.622 38.6617C107.465 38.6617 106.503 39.0719 105.737 39.8922C104.972 40.7034 104.589 41.747 104.589 43.0231C104.589 44.3082 104.976 45.3655 105.751 46.1949C106.535 47.0244 107.497 47.4391 108.636 47.4391C109.812 47.4391 110.787 47.0335 111.562 46.2223C112.336 45.402 112.724 44.331 112.724 43.0094C112.724 41.7151 112.336 40.667 111.562 39.8649C110.787 39.0628 109.807 38.6617 108.622 38.6617Z" fill="#213346"/>
</svg>
