<svg width="56" height="51" viewBox="0 0 56 51" fill="none" xmlns="http://www.w3.org/2000/svg">
<g opacity="0.397" filter="url(#filter0_d_1_777)">
<path opacity="0.397" fill-rule="evenodd" clip-rule="evenodd" d="M1 41.154H55.459V49.713H1V41.154Z" stroke="#9D9D9D"/>
<g opacity="0.397">
<path opacity="0.397" d="M5.978 47.354C5.91771 47.358 5.85723 47.35 5.80006 47.3304C5.74289 47.3109 5.69019 47.2801 5.645 47.24C5.557 47.175 5.522 47.045 5.522 46.882C5.38281 47.0392 5.20887 47.1618 5.014 47.24C4.81134 47.3123 4.59816 47.3509 4.383 47.354C4.243 47.354 4.103 47.338 3.963 47.305C3.83955 47.2736 3.72131 47.2244 3.612 47.159C3.5144 47.094 3.43574 47.0043 3.384 46.899C3.32642 46.7767 3.29638 46.6432 3.296 46.508C3.296 46.328 3.331 46.198 3.384 46.085C3.43779 45.9757 3.52314 45.8852 3.629 45.825C3.734 45.759 3.857 45.71 3.979 45.661C4.119 45.629 4.243 45.596 4.383 45.581C4.523 45.548 4.663 45.531 4.803 45.515C4.943 45.499 5.049 45.482 5.154 45.45C5.24136 45.4257 5.32413 45.3872 5.399 45.336C5.42834 45.3093 5.45144 45.2765 5.46665 45.2398C5.48186 45.2032 5.48881 45.1636 5.487 45.124C5.487 45.011 5.47 44.929 5.417 44.864C5.37104 44.8022 5.31106 44.7521 5.242 44.718C5.17195 44.6792 5.09396 44.657 5.014 44.653C4.926 44.636 4.839 44.636 4.751 44.636C4.523 44.636 4.331 44.669 4.191 44.75C4.032 44.832 3.962 44.978 3.945 45.206H3.4C3.4 45.011 3.453 44.864 3.523 44.734C3.59483 44.6074 3.69729 44.5008 3.821 44.424C3.944 44.344 4.084 44.294 4.259 44.246C4.43219 44.2116 4.60843 44.1948 4.785 44.196C4.925 44.196 5.083 44.213 5.223 44.229C5.363 44.246 5.503 44.295 5.609 44.343C5.714 44.393 5.819 44.49 5.889 44.603C5.959 44.718 5.994 44.848 5.994 45.027V46.589C5.994 46.703 5.994 46.784 6.012 46.849C6.029 46.899 6.082 46.931 6.152 46.931C6.205 46.931 6.257 46.915 6.31 46.898V47.288C6.275 47.321 6.135 47.354 5.977 47.354H5.978ZM5.224 45.824C5.119 45.84 4.996 45.857 4.874 45.873L4.506 45.922C4.39285 45.9392 4.28143 45.9663 4.173 46.003C4.07925 46.0371 3.99494 46.093 3.927 46.166C3.87625 46.239 3.8462 46.3244 3.84003 46.4132C3.83387 46.5019 3.85183 46.5906 3.892 46.67C3.93017 46.7217 3.97765 46.7658 4.032 46.8C4.0963 46.8401 4.16751 46.8679 4.242 46.882C4.312 46.898 4.4 46.898 4.488 46.898C4.663 46.898 4.821 46.882 4.944 46.833C5.066 46.784 5.172 46.736 5.259 46.67C5.33702 46.6115 5.39782 46.5331 5.435 46.443C5.46712 46.3711 5.48479 46.2937 5.487 46.215V45.71C5.4131 45.7741 5.32128 45.8139 5.224 45.824ZM7.468 46.605C7.52 46.687 7.59 46.735 7.661 46.785C7.74759 46.8342 7.84251 46.8671 7.941 46.882C8.046 46.898 8.151 46.915 8.256 46.915C8.344 46.915 8.432 46.915 8.519 46.898C8.6084 46.884 8.6964 46.8623 8.782 46.833C8.85248 46.7996 8.91754 46.7557 8.975 46.703C9.028 46.654 9.045 46.573 9.045 46.475C9.04786 46.4164 9.03465 46.3581 9.0068 46.3065C8.97896 46.2549 8.93753 46.2118 8.887 46.182C8.76612 46.1115 8.63674 46.0567 8.502 46.019C8.344 45.971 8.169 45.939 7.994 45.906C7.8192 45.8769 7.64838 45.8276 7.485 45.759C7.328 45.694 7.187 45.613 7.1 45.499C6.994 45.385 6.942 45.239 6.942 45.043C6.93963 44.9057 6.97602 44.7705 7.047 44.653C7.11884 44.5457 7.21472 44.4567 7.327 44.393C7.45 44.327 7.573 44.278 7.713 44.246C7.853 44.213 7.993 44.196 8.151 44.196C8.344 44.196 8.501 44.213 8.66 44.246C8.817 44.278 8.958 44.327 9.08 44.392C9.203 44.457 9.29 44.555 9.36 44.685C9.43 44.815 9.466 44.962 9.483 45.141H8.94C8.94002 45.0519 8.9089 44.9656 8.852 44.897C8.80212 44.8342 8.74313 44.7793 8.677 44.734C8.59892 44.6972 8.51665 44.67 8.432 44.653C8.34552 44.634 8.25749 44.623 8.169 44.62C8.081 44.62 8.011 44.62 7.923 44.636C7.84485 44.6478 7.76855 44.6696 7.696 44.701C7.6343 44.7246 7.57983 44.7639 7.538 44.815C7.49433 44.8712 7.46979 44.9399 7.468 45.011C7.468 45.091 7.503 45.173 7.573 45.222C7.643 45.271 7.713 45.32 7.818 45.369C7.923 45.401 8.028 45.434 8.151 45.466C8.274 45.499 8.397 45.515 8.537 45.548C8.677 45.58 8.8 45.613 8.923 45.645C9.045 45.678 9.168 45.743 9.256 45.808C9.35363 45.8715 9.43705 45.9546 9.501 46.052C9.56048 46.1618 9.59078 46.2851 9.589 46.41C9.589 46.589 9.554 46.752 9.466 46.866C9.37765 46.9805 9.27085 47.0795 9.15 47.159C9.01 47.24 8.87 47.289 8.695 47.321C8.53337 47.3538 8.36891 47.3705 8.204 47.371C8.029 47.371 7.854 47.354 7.678 47.321C7.52123 47.2921 7.37211 47.2312 7.24 47.142C7.11642 47.0655 7.01396 46.9593 6.942 46.833C6.86275 46.6882 6.8205 46.5261 6.819 46.361H7.363C7.398 46.443 7.415 46.524 7.468 46.605ZM10.816 46.605C10.868 46.687 10.938 46.735 11.008 46.785C11.0946 46.8342 11.1895 46.8671 11.288 46.882C11.394 46.898 11.499 46.915 11.604 46.915C11.692 46.915 11.78 46.915 11.867 46.898C11.955 46.882 12.042 46.866 12.13 46.833C12.2005 46.7996 12.2655 46.7557 12.323 46.703C12.376 46.654 12.393 46.573 12.393 46.475C12.3959 46.4164 12.3826 46.3581 12.3548 46.3065C12.327 46.2549 12.2855 46.2118 12.235 46.182C12.1141 46.1115 11.9847 46.0567 11.85 46.019C11.692 45.971 11.517 45.939 11.341 45.906C11.1665 45.8769 10.9961 45.8275 10.833 45.759C10.675 45.694 10.535 45.613 10.447 45.499C10.342 45.385 10.29 45.239 10.29 45.043C10.2876 44.9057 10.324 44.7705 10.395 44.653C10.4668 44.5457 10.5627 44.4567 10.675 44.393C10.798 44.327 10.921 44.278 11.061 44.246C11.201 44.213 11.341 44.196 11.499 44.196C11.692 44.196 11.849 44.213 12.007 44.246C12.165 44.278 12.305 44.327 12.428 44.392C12.551 44.457 12.638 44.555 12.708 44.685C12.778 44.815 12.814 44.962 12.831 45.141H12.288C12.288 45.0519 12.2569 44.9656 12.2 44.897C12.1501 44.8342 12.0911 44.7793 12.025 44.734C11.9469 44.6972 11.8646 44.67 11.78 44.653C11.6935 44.634 11.6055 44.623 11.517 44.62C11.429 44.62 11.359 44.62 11.271 44.636C11.1925 44.6477 11.1159 44.6696 11.043 44.701C10.9817 44.7247 10.9276 44.764 10.886 44.815C10.8423 44.8712 10.8178 44.9399 10.816 45.011C10.816 45.091 10.851 45.173 10.921 45.222C10.991 45.271 11.061 45.32 11.166 45.369C11.271 45.401 11.376 45.434 11.499 45.466C11.622 45.499 11.745 45.515 11.885 45.548C12.025 45.58 12.148 45.613 12.27 45.645C12.393 45.678 12.516 45.743 12.603 45.808C12.701 45.8714 12.7848 45.9545 12.849 46.052C12.9081 46.1619 12.9381 46.2852 12.936 46.41C12.936 46.589 12.901 46.752 12.814 46.866C12.7256 46.9805 12.6189 47.0795 12.498 47.159C12.358 47.24 12.218 47.289 12.042 47.321C11.8807 47.3537 11.7166 47.3704 11.552 47.371C11.376 47.371 11.202 47.354 11.026 47.321C10.8692 47.2921 10.7201 47.2312 10.588 47.142C10.4644 47.0655 10.362 46.9593 10.29 46.833C10.2107 46.6882 10.1685 46.5261 10.167 46.361H10.71C10.745 46.443 10.763 46.524 10.816 46.605ZM15.951 47.289V46.8H15.934C15.8362 46.9799 15.682 47.1226 15.495 47.206C15.32 47.288 15.11 47.336 14.865 47.336C14.655 47.336 14.479 47.304 14.321 47.256C14.185 47.2144 14.0636 47.135 13.971 47.027C13.8807 46.9301 13.8146 46.8133 13.778 46.686C13.7402 46.537 13.7224 46.3837 13.725 46.23V44.245H14.269V46.295C14.269 46.49 14.321 46.637 14.444 46.735C14.566 46.848 14.724 46.897 14.934 46.897C15.092 46.897 15.233 46.881 15.355 46.832C15.4683 46.7914 15.5704 46.7246 15.653 46.637C15.7406 46.5532 15.8015 46.4453 15.828 46.327C15.864 46.214 15.881 46.084 15.881 45.953V44.245H16.424V47.272H15.951V47.288V47.289ZM17.95 44.262V44.897H17.967C18.09 44.653 18.265 44.474 18.44 44.36C18.633 44.246 18.86 44.18 19.159 44.197V44.717C18.949 44.717 18.756 44.75 18.615 44.799C18.4697 44.8395 18.3409 44.9249 18.247 45.043C18.1506 45.1569 18.079 45.2898 18.037 45.433C17.9932 45.6033 17.9697 45.7782 17.967 45.954V47.305H17.424V44.278H17.949V44.262H17.95ZM21.963 47.094C21.718 47.273 21.42 47.354 21.034 47.354C20.771 47.354 20.544 47.321 20.351 47.24C20.1694 47.1616 20.0031 47.0516 19.86 46.915C19.7312 46.7659 19.6303 46.5948 19.562 46.41C19.4905 46.206 19.4549 45.9911 19.457 45.775C19.457 45.548 19.492 45.336 19.562 45.141C19.6294 44.9532 19.7362 44.7819 19.8752 44.6388C20.0142 44.4956 20.1822 44.3839 20.368 44.311C20.561 44.229 20.754 44.197 20.982 44.197C21.28 44.197 21.507 44.246 21.7 44.36C21.893 44.474 22.05 44.62 22.156 44.783C22.279 44.962 22.349 45.141 22.401 45.353C22.454 45.548 22.471 45.743 22.454 45.938H20.018C20.018 46.068 20.035 46.198 20.07 46.312C20.1074 46.4258 20.1669 46.5311 20.245 46.622C20.3322 46.7163 20.4405 46.7886 20.561 46.833C20.684 46.882 20.841 46.915 21.017 46.915C21.245 46.915 21.437 46.865 21.577 46.768C21.651 46.7173 21.7141 46.6522 21.7623 46.5766C21.8106 46.501 21.8432 46.4165 21.858 46.328H22.384C22.3773 46.4793 22.3359 46.627 22.2631 46.7598C22.1902 46.8926 22.0879 47.0069 21.964 47.094H21.963ZM21.823 45.141C21.7748 45.0384 21.7095 44.9448 21.63 44.864C21.5435 44.7852 21.4422 44.7244 21.332 44.685C21.2155 44.6369 21.0899 44.6147 20.964 44.62C20.8381 44.6147 20.7125 44.6369 20.596 44.685C20.491 44.734 20.386 44.799 20.316 44.865C20.233 44.9424 20.1673 45.0365 20.123 45.141C20.07 45.238 20.053 45.352 20.035 45.466H21.911C21.9045 45.3527 21.8745 45.2421 21.823 45.141ZM25.434 47.289V46.8H25.416C25.3185 46.9797 25.1646 47.1224 24.978 47.206C24.803 47.288 24.592 47.336 24.347 47.336C24.137 47.336 23.961 47.304 23.804 47.256C23.668 47.2144 23.5466 47.135 23.454 47.027C23.3634 46.9302 23.2969 46.8134 23.26 46.686C23.2225 46.537 23.205 46.3836 23.208 46.23V44.245H23.751V46.295C23.751 46.49 23.804 46.637 23.926 46.735C24.049 46.848 24.206 46.897 24.417 46.897C24.575 46.897 24.715 46.881 24.837 46.832C24.9507 46.7916 25.0532 46.7247 25.136 46.637C25.2236 46.5532 25.2845 46.4453 25.311 46.327C25.346 46.214 25.364 46.084 25.364 45.953V44.245H25.907V47.272H25.434V47.288V47.289ZM27.414 44.262V44.897H27.432C27.555 44.653 27.73 44.474 27.905 44.36C28.098 44.246 28.325 44.18 28.624 44.197V44.717C28.414 44.717 28.221 44.75 28.08 44.799C27.9347 44.8395 27.8059 44.9249 27.712 45.043C27.6156 45.1569 27.544 45.2898 27.502 45.433C27.4582 45.6033 27.4347 45.7782 27.432 45.954V47.305H26.889V44.278H27.414V44.262ZM31.691 44.262V44.702H31.709C31.954 44.36 32.305 44.181 32.76 44.181C32.97 44.181 33.146 44.213 33.304 44.295C33.461 44.375 33.584 44.506 33.654 44.685C33.758 44.5182 33.911 44.3876 34.092 44.311C34.268 44.213 34.461 44.181 34.688 44.181C34.846 44.181 35.004 44.197 35.127 44.229C35.267 44.262 35.372 44.311 35.46 44.392C35.557 44.4646 35.6349 44.5596 35.687 44.669C35.7463 44.7964 35.7764 44.9355 35.775 45.076V47.289H35.232V45.303C35.232 45.206 35.232 45.124 35.214 45.043C35.197 44.962 35.162 44.897 35.127 44.832C35.0784 44.7652 35.0113 44.7141 34.934 44.685C34.8324 44.6501 34.7254 44.6335 34.618 44.636C34.355 44.636 34.145 44.701 33.988 44.848C33.83 44.994 33.759 45.173 33.759 45.418V47.305H33.199V45.32C33.199 45.222 33.181 45.124 33.163 45.043C33.1457 44.9652 33.1097 44.8927 33.058 44.832C33.0094 44.7652 32.9423 44.7141 32.865 44.685C32.7704 44.6487 32.6693 44.632 32.568 44.636C32.429 44.6342 32.2913 44.6621 32.164 44.718C32.059 44.783 31.954 44.848 31.901 44.929C31.849 45.011 31.779 45.092 31.744 45.189C31.7115 45.2608 31.6935 45.3383 31.691 45.417V47.305H31.148V44.278L31.691 44.262ZM36.792 43.709V43.107H37.335V43.709H36.792ZM37.335 44.262V47.289H36.792V44.262H37.335ZM38.93 43.107V47.289H38.387V43.107H38.93ZM39.982 43.709V43.107H40.525V43.709H39.982ZM40.525 44.262V47.289H39.982V44.262H40.525ZM42.944 44.262V44.702H42.295V46.589C42.295 46.654 42.295 46.687 42.313 46.736C42.33 46.784 42.348 46.801 42.366 46.816C42.401 46.833 42.436 46.849 42.488 46.849C42.541 46.849 42.611 46.866 42.698 46.866H42.944V47.306H42.541C42.401 47.306 42.278 47.289 42.191 47.273C42.1022 47.261 42.0177 47.2274 41.945 47.175C41.8801 47.1252 41.8314 47.0574 41.805 46.98C41.7651 46.8706 41.7471 46.7544 41.752 46.638V44.718H41.192V44.278H41.752V43.367H42.295V44.278H42.944V44.262ZM46.24 47.354C46.1795 47.3581 46.1189 47.3502 46.0615 47.3306C46.0042 47.311 45.9513 47.2802 45.906 47.24C45.818 47.175 45.783 47.045 45.783 46.882C45.6438 47.0392 45.4699 47.1618 45.275 47.24C45.0727 47.3122 44.8598 47.3507 44.645 47.354C44.504 47.354 44.364 47.338 44.223 47.305C44.0999 47.2735 43.982 47.2243 43.873 47.159C43.7754 47.094 43.6967 47.0043 43.645 46.899C43.5856 46.7773 43.5555 46.6434 43.557 46.508C43.557 46.328 43.592 46.198 43.645 46.085C43.6988 45.9757 43.7841 45.8852 43.89 45.825C43.996 45.759 44.118 45.71 44.241 45.661C44.381 45.629 44.504 45.596 44.644 45.581C44.784 45.548 44.924 45.531 45.064 45.515C45.205 45.499 45.31 45.482 45.415 45.45C45.5027 45.4258 45.5858 45.3873 45.661 45.336C45.6902 45.3092 45.7131 45.2763 45.7281 45.2397C45.7431 45.203 45.7499 45.1636 45.748 45.124C45.748 45.011 45.731 44.929 45.678 44.864C45.632 44.8022 45.5721 44.7521 45.503 44.718C45.4329 44.6792 45.355 44.657 45.275 44.653C45.187 44.636 45.1 44.636 45.012 44.636C44.784 44.636 44.592 44.669 44.452 44.75C44.294 44.832 44.223 44.978 44.206 45.206H43.663C43.663 45.011 43.715 44.864 43.785 44.734C43.8568 44.6074 43.9593 44.5008 44.083 44.424C44.206 44.344 44.346 44.294 44.521 44.246C44.6942 44.2116 44.8704 44.1948 45.047 44.196C45.187 44.196 45.345 44.213 45.485 44.229C45.625 44.246 45.765 44.295 45.871 44.343C45.994 44.408 46.081 44.49 46.151 44.603C46.221 44.718 46.257 44.848 46.257 45.027V46.589C46.257 46.703 46.257 46.784 46.274 46.849C46.292 46.899 46.344 46.931 46.414 46.931C46.467 46.931 46.52 46.915 46.572 46.898V47.288C46.537 47.321 46.397 47.354 46.239 47.354H46.24ZM45.485 45.824C45.38 45.84 45.258 45.857 45.135 45.873L44.767 45.922C44.6539 45.9392 44.5424 45.9663 44.434 46.003C44.329 46.036 44.259 46.101 44.188 46.166C44.1372 46.239 44.1072 46.3244 44.101 46.4132C44.0949 46.5019 44.1128 46.5906 44.153 46.67C44.1866 46.7256 44.2351 46.7706 44.293 46.8C44.3573 46.8401 44.4285 46.8679 44.503 46.882C44.574 46.898 44.662 46.898 44.732 46.898C44.907 46.898 45.065 46.882 45.187 46.833C45.31 46.784 45.415 46.736 45.503 46.67C45.5806 46.6114 45.6411 46.533 45.678 46.443C45.7105 46.3712 45.7285 46.2937 45.731 46.215V45.71C45.6617 45.7709 45.5763 45.8105 45.485 45.824ZM47.87 44.083V44.587H47.887C48.115 44.197 48.5 44.002 49.009 44.002C49.236 44.002 49.429 44.034 49.569 44.083C49.727 44.148 49.849 44.213 49.938 44.327C50.0317 44.434 50.0977 44.5625 50.13 44.701C50.165 44.848 50.183 44.994 50.183 45.173V47.273H49.622V45.108C49.6248 45.0202 49.609 44.9328 49.5757 44.8515C49.5425 44.7701 49.4925 44.6967 49.429 44.636C49.2886 44.5139 49.1069 44.4499 48.921 44.457C48.746 44.457 48.605 44.49 48.465 44.539C48.3426 44.5791 48.2336 44.6521 48.15 44.75C48.062 44.848 48.01 44.945 47.957 45.076C47.922 45.19 47.887 45.336 47.887 45.482V47.289H47.326V44.099H47.869V44.083H47.87ZM52.514 44.083V44.555H51.831V46.54C51.831 46.605 51.831 46.654 51.848 46.687C51.866 46.719 51.883 46.752 51.918 46.768C51.953 46.784 51.988 46.801 52.041 46.801C52.093 46.801 52.164 46.817 52.251 46.817H52.514V47.273H52.076C51.936 47.273 51.796 47.256 51.708 47.24C51.6183 47.2315 51.533 47.1975 51.462 47.142C51.3987 47.0843 51.3506 47.0118 51.322 46.931C51.284 46.8156 51.2664 46.6944 51.27 46.573V44.555H50.691V44.083H51.27V43.123H51.83V44.083H52.514Z" fill="#9D9D9D"/>
</g>
<path opacity="0.397" d="M53.093 41.984V48.997" stroke="black" stroke-width="0.5"/>
<g opacity="0.397">
<path opacity="0.397" d="M8.415 0H48.028V36.777H8.415V0Z" fill="#9D9D9D"/>
<path opacity="0.397" d="M12.62 29.86H43.785L28.221 3.23901L12.62 29.86Z" fill="#464646"/>
<g opacity="0.397">
<path opacity="0.397" d="M35.74 17.298C35.635 17.64 35.635 18.014 35.617 18.388V23.628C35.635 24.002 35.687 24.36 35.775 24.702H32.918C33.023 24.377 33.041 24.019 33.058 23.661V18.6C33.006 18.177 33.006 17.721 32.865 17.314L35.74 17.298ZM45.38 17.298V18.893C45.1 18.795 44.784 18.779 44.469 18.763H40.052V20.732H44.294C44.662 20.699 45.047 20.699 45.38 20.585V22.391C45.047 22.277 44.662 22.261 44.294 22.245L43.47 22.229H40.087V23.563C40.104 23.953 40.14 24.328 40.227 24.703H37.44C37.633 24.149 37.563 23.498 37.563 22.863V18.323C37.528 17.981 37.51 17.607 37.405 17.298H45.38ZM22.331 19.023V23.514C22.349 23.904 22.384 24.312 22.489 24.686H19.702C19.895 24.067 19.825 23.449 19.842 22.798C19.842 22.798 19.86 18.99 19.842 18.958L17.634 23.465C17.459 23.855 17.266 24.246 17.196 24.685H15.408C15.314 24.2775 15.1667 23.8841 14.97 23.515L12.691 18.958L12.709 23.726C12.744 24.051 12.761 24.376 12.866 24.67H11.043C11.166 24.246 11.166 23.79 11.183 23.303V18.958C11.166 18.372 11.183 17.786 10.991 17.249C10.991 17.233 10.991 17.249 11.008 17.249H14.566C14.654 17.802 14.952 18.259 15.18 18.763L16.793 22.033L18.353 18.942C18.615 18.405 18.913 17.868 19.036 17.265C19.001 17.249 19.054 17.265 19.036 17.265H22.489C22.314 17.819 22.349 18.421 22.331 19.023ZM26.1 18.047C26.2123 17.8042 26.2891 17.5466 26.328 17.282H29.079C29.132 17.591 29.272 17.852 29.395 18.128L32.69 24.686H29.78C29.746 24.572 29.728 24.458 29.693 24.344C29.553 23.904 29.343 23.465 29.133 23.042H25.346C25.153 23.319 25.066 23.644 24.908 23.954C24.82 24.181 24.75 24.442 24.68 24.686H22.857L23.821 22.701L26.1 18.047ZM27.222 19.088L25.924 21.887H28.536L27.222 19.088Z" fill="white"/>
</g>
</g>
</g>
<defs>
<filter id="filter0_d_1_777" x="-3.5" y="0" width="63.459" height="58.213" filterUnits="userSpaceOnUse" color-interpolation-filters="sRGB">
<feFlood flood-opacity="0" result="BackgroundImageFix"/>
<feColorMatrix in="SourceAlpha" type="matrix" values="0 0 0 0 0 0 0 0 0 0 0 0 0 0 0 0 0 0 127 0" result="hardAlpha"/>
<feOffset dy="4"/>
<feGaussianBlur stdDeviation="2"/>
<feComposite in2="hardAlpha" operator="out"/>
<feColorMatrix type="matrix" values="0 0 0 0 0 0 0 0 0 0 0 0 0 0 0 0 0 0 0.25 0"/>
<feBlend mode="normal" in2="BackgroundImageFix" result="effect1_dropShadow_1_777"/>
<feBlend mode="normal" in="SourceGraphic" in2="effect1_dropShadow_1_777" result="shape"/>
</filter>
</defs>
</svg>
