<svg xmlns="http://www.w3.org/2000/svg" width="41" height="40" viewBox="0 0 41 40">
  <g id="Group_73471" data-name="Group 73471" transform="translate(0 -0.492)">
    <g id="Ellipse_6" data-name="Ellipse 6" transform="translate(0 0.492)" fill="#fff" stroke="#ff6e41" stroke-width="1">
      <ellipse cx="20.5" cy="20" rx="20.5" ry="20" stroke="none"/>
      <ellipse cx="20.5" cy="20" rx="20" ry="19.5" fill="none"/>
    </g>
    <g id="Group_73469" data-name="Group 73469" transform="translate(13.286 10.841)">
      <path id="Path_1048" data-name="Path 1048" d="M474.889,58.033h-3.651a1.737,1.737,0,0,0,.159-.1,2.77,2.77,0,0,0,.747-3.584A2.165,2.165,0,0,0,470.3,53.31a2.412,2.412,0,0,0-1.459.506,4.754,4.754,0,0,0-1.209,2.029h-.051a4.738,4.738,0,0,0-1.208-2.029,2.417,2.417,0,0,0-1.458-.506,2.165,2.165,0,0,0-1.846,1.035,2.769,2.769,0,0,0,.746,3.584,1.829,1.829,0,0,0,.16.1h-3.652V63.41h1.108v8.6h12.352v-8.6h1.108Zm-5.5-3.327a1.5,1.5,0,0,1,.9-.316,1.19,1.19,0,0,1,1.035.565,1.621,1.621,0,0,1-.49,2.083,2.9,2.9,0,0,1-1.613.314c0-.028,0-.056,0-.084a1.359,1.359,0,0,0-.644-1.14A3.667,3.667,0,0,1,469.394,54.706Zm-5.517.249a1.194,1.194,0,0,1,1.037-.565,1.5,1.5,0,0,1,.9.316,3.684,3.684,0,0,1,.8,1.421,1.361,1.361,0,0,0-.644,1.14c0,.029,0,.056.005.084a2.892,2.892,0,0,1-1.613-.314A1.623,1.623,0,0,1,463.877,54.955Zm9.793,6.775h-5V59.377h5Zm-12.128-2.352h5V61.73h-5Zm1.108,4.08h3.888v7.207H462.65Zm9.911,7.207h-3.888V63.457h3.888Z" transform="translate(-460.322 -53.31)" fill="#ff6e41"/>
      <path id="Path_1049" data-name="Path 1049" d="M476.372,58.033a1.721,1.721,0,0,0,.159-.1,2.77,2.77,0,0,0,.747-3.584,2.165,2.165,0,0,0-1.845-1.035,2.412,2.412,0,0,0-1.458.506,4.755,4.755,0,0,0-1.209,2.029h-.051a4.737,4.737,0,0,0-1.208-2.029,2.417,2.417,0,0,0-1.458-.506,2.165,2.165,0,0,0-1.846,1.035,2.769,2.769,0,0,0,.746,3.584,1.829,1.829,0,0,0,.16.1h7.264Zm-1.844-3.327a1.5,1.5,0,0,1,.9-.316,1.19,1.19,0,0,1,1.035.565,1.621,1.621,0,0,1-.49,2.083,2.9,2.9,0,0,1-1.613.314c0-.028,0-.056,0-.084a1.359,1.359,0,0,0-.644-1.14A3.667,3.667,0,0,1,474.529,54.706Zm-5.517.249a1.194,1.194,0,0,1,1.037-.565,1.5,1.5,0,0,1,.9.316,3.685,3.685,0,0,1,.8,1.421,1.361,1.361,0,0,0-.644,1.14c0,.029,0,.056.005.084a2.893,2.893,0,0,1-1.613-.314A1.623,1.623,0,0,1,469.011,54.955Z" transform="translate(-465.456 -53.31)" fill="#ff6e41"/>
    </g>
  </g>
</svg>
