<svg xmlns="http://www.w3.org/2000/svg" width="54" height="54" viewBox="0 0 54 54">
  <g id="Group_3547" data-name="Group 3547" transform="translate(-1159 -891)">
    <circle id="Ellipse_44" data-name="Ellipse 44" cx="27" cy="27" r="27" transform="translate(1159 891)" fill="#f0f0f7"/>
    <path id="Path_1157" data-name="Path 1157" d="M120.542,0a7.411,7.411,0,0,0-7.4,7.4V21.417a.905.905,0,1,0,1.81,0V7.4a5.592,5.592,0,0,1,11.185,0V21.851a3.643,3.643,0,0,1-3.639,3.638c-.015,0-.028.008-.043.009s-.028-.009-.044-.009a3.643,3.643,0,0,1-3.638-3.638V13.184a1.772,1.772,0,1,1,3.544,0v8.233a.905.905,0,1,0,1.81,0V13.184a3.582,3.582,0,1,0-7.164,0v8.667a5.454,5.454,0,0,0,5.448,5.448c.016,0,.028-.008.044-.009s.028.009.043.009a5.455,5.455,0,0,0,5.448-5.448V7.4A7.411,7.411,0,0,0,120.542,0Z" transform="matrix(0.259, 0.966, -0.966, 0.259, 1169.12, 797.344)" fill="#6d6d70"/>
  </g>
</svg>
