<svg xmlns="http://www.w3.org/2000/svg" width="44" height="63" viewBox="0 0 44 63">
  <g id="Group_3724" data-name="Group 3724" transform="translate(-1142 -70)">
    <text id="Close" transform="translate(1149 130)" fill="#7d7d7d" font-size="12" font-family="SegoeUI, Segoe UI"><tspan x="0" y="0">Close</tspan></text>
    <g id="Group_3618" data-name="Group 3618" transform="translate(0 -3)">
      <g id="Group_3715" data-name="Group 3715">
        <g id="Group_3608" data-name="Group 3608" transform="translate(49 -818)">
          <g id="Ellipse_35" data-name="Ellipse 35" transform="translate(1093 891)" fill="#b92d00" stroke="#b92d00" stroke-width="1">
            <circle cx="22" cy="22" r="22" stroke="none"/>
            <circle cx="22" cy="22" r="21.5" fill="none"/>
          </g>
        </g>
        <g id="Group_3714" data-name="Group 3714" transform="translate(1142.982 83.082)">
          <path id="Path_1206" data-name="Path 1206" d="M27.308,46.8a.79.79,0,0,0-1.117,1.117,7.673,7.673,0,1,1-10.85,0A.79.79,0,1,0,14.224,46.8a9.252,9.252,0,1,0,13.084,0Z" transform="translate(0 -41.663)" fill="#fff"/>
          <path id="Path_1207" data-name="Path 1207" d="M92.622,10.232a.79.79,0,0,0,.79-.79V.79a.79.79,0,0,0-1.58,0V9.442A.79.79,0,0,0,92.622,10.232Z" transform="translate(-71.856 0)" fill="#fff"/>
        </g>
      </g>
    </g>
  </g>
</svg>

