<svg xmlns="http://www.w3.org/2000/svg" width="38" height="38" viewBox="0 0 38 38">
  <g id="Group_3542" data-name="Group 3542" transform="translate(-1263 -435)">
    <g id="Group_3540" data-name="Group 3540">
      <g id="Icon" transform="translate(108 -962)">
        <circle id="Icon.BG" cx="19" cy="19" r="19" transform="translate(1155 1397)" fill="#fff"/>
      </g>
    </g>
    <g id="Group_1578" data-name="Group 1578" transform="translate(1266.797 444.005)" opacity="0.6">
      <path id="Path_1026" data-name="Path 1026" d="M23.112,12a2.555,2.555,0,1,0,2.555,2.555A2.559,2.559,0,0,0,23.112,12Zm0,4.381a1.825,1.825,0,1,1,1.825-1.825A1.827,1.827,0,0,1,23.112,16.381Z" transform="translate(-7.844 -7.619)"/>
      <path id="Path_1027" data-name="Path 1027" d="M20.153,2.05a7,7,0,0,0-9.9,0,7.974,7.974,0,0,0-.659,9.839l5.609,8.1L20.8,11.9A7.977,7.977,0,0,0,20.153,2.05Zm.058,9.423L15.2,18.706l-5.016-7.244a7.2,7.2,0,0,1,.583-8.9,6.27,6.27,0,0,1,8.867,0A7.207,7.207,0,0,1,20.211,11.474Z" transform="translate(0 0)"/>
    </g>
  </g>
</svg>
