<svg id="Forums" xmlns="http://www.w3.org/2000/svg" width="18" height="18" viewBox="0 0 18 18">
  <rect id="rectangle" width="18" height="18" transform="translate(0 0)" fill="none"/>
  <path id="path" d="M15.924,4.931H14.457v6.6H4.93v1.466a.734.734,0,0,0,.734.733h8.06l2.932,2.931V5.664a.732.732,0,0,0-.732-.733M12.26,2H2.733A.733.733,0,0,0,2,2.733V12.992L4.93,10.06H12.26a.733.733,0,0,0,.732-.734V2.733A.733.733,0,0,0,12.26,2" transform="translate(-0.534 -0.534)" fill="#6d78b7" fill-rule="evenodd"/>
</svg>
