<svg xmlns="http://www.w3.org/2000/svg" width="46.742" height="44.006" viewBox="0 0 46.742 44.006">
  <g id="Group_3735" data-name="Group 3735" transform="translate(-577.063 -114.574)">
    <g id="Group_3740" data-name="Group 3740">
      <path id="Path_1211" data-name="Path 1211" fill="#fff" d="M-161.081-.7H-188.7l4.234,7.862V22.887a2.5,2.5,0,0,0,2.621,2.419h20.765a2.5,2.5,0,0,0,2.621-2.419V2.122A2.853,2.853,0,0,0-161.081-.7Zm-8.064,19.555h-10.08V16.839h10.08Zm4.032-6.048h-14.112V10.791h14.112Zm2.016-6.048h-16.128V4.743H-163.1Z" transform="translate(765.763 133.274)"/>
      <path id="UpArrow" fill="#fff" d="M13,15.6V2.6A2.457,2.457,0,0,0,10.4,0h0A2.457,2.457,0,0,0,7.8,2.6v13H0l10.4,10.4L20.8,15.6Z" transform="translate(623.805 140.58) rotate(180)"/>
    </g>
  </g>
</svg>
