<svg xmlns="http://www.w3.org/2000/svg" width="20.333" height="20.333" viewBox="0 0 20.333 20.333">
  <g id="XMLID_14_" transform="translate(-1108 -61.6)">
    <path id="XMLID_20_" d="M1108,61.6h20.333V81.933H1108Z" fill="none"/>
    <g id="XMLID_15_" transform="translate(1109.187 62.572)">
      <rect id="XMLID_19_" width="1.694" height="23.976" transform="translate(0 1.198) rotate(-45)" fill="#ff6e6e"/>
      <g id="XMLID_16_" transform="translate(1.185 0.13)">
        <path id="XMLID_18_" d="M1121.485,71.118h2.033v1.694h-.339l3.812,3.474a8.736,8.736,0,0,0,1.44-4.829,8.57,8.57,0,0,0-8.472-8.557,9.156,9.156,0,0,0-4.66,1.694Z" transform="translate(-1111.488 -62.9)" fill="#ff6e6e"/>
        <path id="XMLID_17_" d="M1120.119,73.3h-5.761V71.607h4.067l-5.168-5.507a8,8,0,0,0-2.457,5.761,8.425,8.425,0,0,0,8.472,8.387,8.2,8.2,0,0,0,6.015-2.118Z" transform="translate(-1110.8 -63.389)" fill="#ff6e6e"/>
      </g>
    </g>
  </g>
</svg>
