<svg xmlns="http://www.w3.org/2000/svg" xmlns:xlink="http://www.w3.org/1999/xlink" width="54" height="54" viewBox="0 0 54 54">
  <defs>
    <clipPath id="clip-path">
      <rect width="24" height="24" fill="none"/>
    </clipPath>
  </defs>
  <g id="Group_3548" data-name="Group 3548" transform="translate(-1093 -891)">
    <circle id="Ellipse_35" data-name="Ellipse 35" cx="27" cy="27" r="27" transform="translate(1093 891)" fill="#f0f0f7"/>
    <g id="Component_97_2" data-name="Component 97 – 2" transform="translate(1108 906)" clip-path="url(#clip-path)">
      <g id="ic_mic_" data-name="ic_mic " transform="translate(-319.65 -47.7)" opacity="0.54">
        <rect id="rectangle" width="24" height="24" transform="translate(319.65 47.7)" fill="none"/>
        <path id="ic_mic_2" data-name="ic_mic " d="M331.4,62.7a2.946,2.946,0,0,0,3-3v-6a3,3,0,0,0-6,0v6A3.076,3.076,0,0,0,331.4,62.7Zm5.3-3a5.3,5.3,0,0,1-10.6,0h-1.7a6.961,6.961,0,0,0,6,6.7v3.3h2V66.4a6.961,6.961,0,0,0,6-6.7Z" transform="translate(0.25)"/>
      </g>
    </g>
  </g>
</svg>
