<svg width="381" height="213" viewBox="0 0 381 213" fill="none" xmlns="http://www.w3.org/2000/svg">
<mask id="mask0_47_9" style="mask-type:alpha" maskUnits="userSpaceOnUse" x="14" y="9" width="353" height="184">
<rect x="14" y="9" width="353" height="184" rx="8" fill="white"/>
</mask>
<g mask="url(#mask0_47_9)">
<g filter="url(#filter0_d_47_9)">
<rect x="14" y="10" width="353" height="185" rx="8" fill="white"/>
</g>
<path d="M255.198 102.289L252.652 103.138L249.596 100.931L248.237 92.9513L250.105 87.3484L252.652 86.1599L255.708 89.5556L256.557 95.8376L255.198 102.289Z" fill="#D3D3D3" fill-opacity="0.4" stroke="white" stroke-width="1.31447" stroke-linejoin="round"/>
<path d="M185.368 -51.3444L188.424 -51.684L197.423 -59.6638L200.649 -60.5127L203.875 -57.2868L201.837 -52.0235L208.459 -46.2509L210.666 -46.93L214.911 -38.7804L223.909 -36.5733L231.21 -31.1402L244.283 -29.2726L257.866 -32.1589L258.206 -34.7056L265.676 -36.7431L270.77 -43.025L276.882 -42.6855L280.278 -44.7228L286.899 -43.7041L298.105 -38.1013L305.406 -36.9128L317.8 -27.405L324.592 -26.8956L327.478 -17.8971L326.459 -4.31443L325.61 3.66541L329.855 5.36324L327.138 11.3057L331.722 19.9646L333.76 26.9257L341.061 28.7933L342.928 35.7545L336.307 45.6019L341.74 51.3745L346.494 57.9961L356.171 62.75L357.869 72.2579L362.454 74.1255L363.981 79.0492L351.248 84.8218L349.38 97.3858L331.383 94.1599L320.856 91.6132L310.16 90.2549L304.557 76.8421L299.803 74.9744L292.842 76.8421L284.183 82.1053L272.298 78.5399L261.941 70.0507L252.603 66.9946L245.132 56.6378L236.303 42.2062L231.549 43.904L225.267 40.3386L222.381 44.5832L216.439 38.8105L215.59 33.0379H212.703L213.043 25.0581L207.101 16.9085L195.046 10.7963L187.236 0.439537L188.085 -8.04963L191.99 -11.7849L190.462 -18.0669L184.01 -21.4626L176.03 -34.3661L169.578 -43.025L170.767 -46.4207L165.843 -58.8149L171.446 -62.0408L173.483 -57.7962L178.916 -52.8725L185.368 -51.3444Z" fill="#D3D3D3" fill-opacity="0.4" stroke="white" stroke-width="1.31447" stroke-linejoin="round"/>
<path d="M176.021 -34.415L184 -21.5115L190.452 -18.1158L191.98 -11.8338L188.075 -8.09851L187.226 0.390671L195.036 10.7474L207.091 16.8597L213.033 25.0093L212.693 32.9891H215.58L216.429 38.7617L222.371 44.5344L216.768 44.025L210.486 43.0063L204.884 53.5329L187.566 52.684L159.042 30.7819L144.441 23.1417L132.896 20.0855L127.633 6.84243L146.309 -4.5331L148.007 -17.6064L145.969 -25.5863L150.553 -28.3028L154.119 -35.0942L157.684 -36.792L168.38 -35.2639L171.946 -32.5474L176.021 -34.415Z" fill="#D3D3D3" fill-opacity="0.4" stroke="white" stroke-width="1.31447" stroke-linejoin="round"/>
<path d="M446.845 -37.0742L449.392 -34.0181L444.468 -32.6598L440.393 -30.7922L430.376 -29.434L421.378 -27.2268L417.303 -22.4729L420.529 -17.8888L422.906 -12.4557L419.51 -7.87161L420.868 -3.62705L419.34 0.277981L410.511 -0.0616074L415.775 7.06928L410.511 9.95555L408.134 16.4073L410.002 23.0288L406.946 26.0849L403.381 25.0662L396.589 26.5943L396.25 29.4805H389.289L385.384 35.7625L386.742 44.9308L375.536 49.5149L368.915 48.4962L367.387 50.8731L361.614 49.5149L352.616 51.2127L336.317 45.6099L342.938 35.7625L341.07 28.8014L333.77 26.9338L331.732 19.9728L327.148 11.3138L329.865 5.37145L325.62 3.67363L326.469 -4.30617L327.488 -17.8888L337.505 -13.6442L344.126 -15.1722L344.806 -20.0959L351.597 -21.624L356.011 -25.0196L355.672 -33.6785L362.803 -35.8857L363.312 -39.6209L368.236 -36.7346L370.952 -36.3951H376.046L383.346 -34.0181L386.402 -32.8296L392.175 -36.2253L395.74 -34.1879L397.269 -39.1116L402.701 -38.9418L403.72 -40.4698L403.381 -44.8842L406.267 -48.6194L411.87 -46.2424L411.7 -42.8468L414.586 -42.3374L416.114 -33.1692L420.698 -29.6038L423.245 -31.9807L426.98 -32.9994L431.225 -37.9231L437.677 -37.0742H446.845Z" fill="#D3D3D3" fill-opacity="0.4" stroke="white" stroke-width="1.31447" stroke-linejoin="round"/>
<path d="M299.556 90.4262L301.763 99.0851H297.009V106.216L298.877 107.744L294.802 109.951L295.141 114.366L292.934 118.78V123.195L291.236 125.572L262.543 120.138L257.958 108.933L257.449 106.556L258.977 105.877L259.656 108.933L266.787 107.235L274.597 107.574L280.37 107.914L285.973 100.443L292.255 93.4823L297.348 86.6909L299.556 90.4262Z" fill="#D3D3D3" fill-opacity="0.4" stroke="white" stroke-width="1.31447" stroke-linejoin="round"/>
<path d="M100.732 8.03702L98.3553 8.20676L97.6763 10.0744H94.6201L96.8274 1.07584L100.563 -6.56446V-6.90405L104.807 -6.39467L106.845 -2.15005L102.26 2.09456L100.732 8.03702Z" fill="#D3D3D3" fill-opacity="0.4" stroke="white" stroke-width="1.31447" stroke-linejoin="round"/>
<path d="M278.515 189.28L271.723 192.166L270.195 197.09V200.825L261.027 205.409L246.086 210.503L238.106 218.143L233.861 218.822L230.975 218.143L225.542 222.727L219.599 224.765L211.62 225.274L209.242 225.953L207.375 228.839L204.828 229.688L203.47 232.405L198.716 232.065L195.829 233.593L189.038 233.084L186.321 226.632V220.69L184.624 217.464L182.416 209.484L179.36 205.07L181.228 204.391L180.04 199.467L181.058 197.43L180.379 192.676L184.454 189.11L183.096 184.526L185.303 179.263L189.378 181.979L191.924 180.961L202.791 180.791L204.658 181.809L213.997 182.998L217.562 182.489L220.109 186.054L224.523 184.186L230.466 172.811L238.955 167.887L265.951 163.643L274.779 181.64L278.515 189.28Z" fill="#D3D3D3" fill-opacity="0.4" stroke="white" stroke-width="1.31447" stroke-linejoin="round"/>
<path d="M120.955 213.437L119.766 222.775L116.371 233.641L110.768 238.904L106.863 247.394L106.014 251.808L101.6 254.864L99.0528 266.24V267.598L97.6947 267.258L97.8644 261.825L96.5061 258.09L91.5823 253.845L90.0544 246.035L91.0731 237.886L86.6588 237.207L85.9796 239.584L80.2069 240.263L82.7537 243.319L83.6026 249.94L78.5091 255.883L73.925 263.693L69.0013 264.881L60.8516 258.599L57.2862 260.807L56.4373 263.863L51.5135 266.07L51.174 268.277H41.6662L40.3079 266.07L33.3468 265.561L29.9511 267.428L27.2346 266.579L22.3109 260.128L20.613 257.241L13.652 258.769L11.1052 263.693L8.89796 273.541L5.5023 275.578L2.61607 276.766L1.76715 276.257L-1.45877 273.031L-2.13794 269.635L-0.779595 265.221V260.637L-6.38252 253.845L-7.57092 249.261V246.545L-11.1365 243.319L-11.3063 237.037L-13.5133 232.792L-16.7393 233.471L-15.8903 229.396L-13.5133 224.982L-14.7019 220.398L-11.6458 217.002L-13.6833 214.455L-11.476 207.834L-7.23144 199.684L0.918236 200.533L-0.949545 157.238V152.654H9.91662L9.06771 130.921H46.9294H83.4328H120.955L124.52 141.618L122.483 143.485L124.52 154.861L128.765 167.764L132.5 170.481L137.933 174.556L133.349 180.668L126.558 182.536L123.671 185.931L123.162 193.062L119.766 209.192L120.955 213.437Z" fill="#D3D3D3" fill-opacity="0.4" stroke="white" stroke-width="1.31447" stroke-linejoin="round"/>
<path d="M204.914 53.5631L213.403 54.5818L216.289 59.8451L222.911 59.5055L227.495 69.0134L232.419 71.3904L234.456 75.2954L241.247 79.8795L242.436 84.2939L241.757 88.0291L243.285 91.5946L246.341 94.6507L247.869 98.2161L249.567 100.933L252.623 103.14L255.169 102.291L257.377 106.536L257.886 108.913L262.47 120.118L291.163 125.551L292.861 123.174L297.955 130.984L293.54 152.717L265.866 163.583L238.87 167.827L230.381 172.751L224.439 184.127L220.025 185.994L217.478 182.429L213.912 182.938L204.574 181.75L202.707 180.731L191.841 180.901L189.294 181.919L185.219 179.203L183.012 184.466L184.37 189.05L180.295 192.616L178.767 187.862L175.711 184.636L174.862 180.222L169.599 176.317L163.996 167.148L160.77 158.32L153.809 150.849L149.565 148.981L142.604 138.625L141.076 131.154V124.702L134.964 112.478L130.21 108.233L125.116 106.026L121.551 99.7442L121.89 97.3672L118.834 91.5946L115.948 89.2176L111.703 81.0681L105.252 72.4091L99.9883 64.9386H95.4043L96.2532 58.9962L96.4229 55.0911L97.1021 50.6768L107.629 52.5444L111.194 49.1487L113.062 45.2437L120.023 43.7157L121.211 39.9804L123.928 38.2826L113.741 27.2467L131.398 21.8136L132.926 20.1157L144.471 23.1719L159.073 30.8121L187.596 52.7142L204.914 53.5631Z" fill="#009789" fill-opacity="0.6" stroke="white" stroke-width="1.31447" stroke-linejoin="round"/>
<path d="M216.78 44.0465L219.327 48.8005L218.818 51.3473L222.893 59.497L216.271 59.8365L213.385 54.5732L204.896 53.5545L210.498 43.0278L216.78 44.0465Z" fill="#D3D3D3" fill-opacity="0.4" stroke="white" stroke-width="1.31447" stroke-linejoin="round"/>
<path d="M127.686 6.91532L111.217 18.6304L100.521 14.216H100.351L101.37 12.5182L100.691 8.10383L102.219 2.16137L106.803 -2.08324L104.766 -6.32786L100.521 -6.83724L98.6533 -15.1567L100.351 -19.7409L102.558 -22.1178L104.596 -24.4948L104.256 -30.4373L107.482 -28.3998L116.99 -31.456L122.083 -29.4186H129.554L139.232 -33.4934L144.155 -33.3236L154.173 -35.0215L150.607 -28.2301L146.023 -25.5135L148.061 -17.5336L146.363 -4.46027L127.686 6.91532Z" fill="#D3D3D3" fill-opacity="0.4" stroke="white" stroke-width="1.31447" stroke-linejoin="round"/>
<path d="M185.229 232.311L182.343 235.027L178.268 234.009L174.872 230.443L170.628 224.161L166.213 220.596L163.666 216.861L155.177 212.446L148.556 212.277L146.179 210.069L140.746 212.616L134.633 207.692L132.087 215.842L120.881 213.465L119.692 209.22L123.088 193.091L123.597 185.96L126.484 182.565L133.275 180.697L137.859 174.585L143.971 187.149L147.197 197.166L152.63 202.429L166.213 212.786L171.816 218.898L177.249 225.35L180.305 229.085L185.229 232.311Z" fill="#D3D3D3" fill-opacity="0.4" stroke="white" stroke-width="1.31447" stroke-linejoin="round"/>
<path d="M88.7368 30.4586L95.3585 46.4181L96.5469 49.1347L94.3398 53.549L93.1512 61.6986L91.1139 67.4712L89.0765 69.3388L85.6809 65.7734L81.0966 61.0195L73.1168 45.3995L72.2679 46.4181L77.0217 57.7936L83.6433 68.8295L91.9628 85.8078L95.8679 91.7502L99.2636 97.8624L108.432 109.917L106.734 111.785L107.413 118.915L118.959 128.763L120.826 130.97H83.3038H46.8002H8.93829L7.24045 90.7315L5.03338 52.021L1.6377 43.1923L3.50528 36.5708L1.80744 31.8169L4.69369 26.5536L16.9183 26.3838L26.0864 29.2701L35.4246 32.496L39.8391 34.1938L46.6305 30.7982L50.1959 27.742L58.1757 26.7234L64.7973 28.0816L67.8535 33.5147L69.7211 29.9492L77.1917 32.496L84.4922 33.1751L88.7368 30.4586Z" fill="#D3D3D3" fill-opacity="0.4" stroke="white" stroke-width="1.31447" stroke-linejoin="round"/>
<path d="M478.151 -16.6316L471.699 -7.4633L462.021 -5.76548L447.59 -8.48196L444.194 -3.72806L449.797 5.77978L454.721 13.2502L463.38 18.5135L456.928 24.7954L458.626 32.6054L452.004 43.6413L448.269 54.6772L440.628 66.0526L429.592 65.2037L421.273 76.7489L428.064 81.5029L430.441 89.992L436.384 95.425L439.44 104.763H418.896L413.463 112.064L406.332 109.347L402.597 101.537L394.277 93.2179L377.299 95.2552L362.018 95.425L349.114 96.953L350.982 84.3891L363.716 78.6165L362.188 73.6928L357.604 71.8252L355.906 62.3174L346.228 57.5635L341.474 50.942L336.041 45.1693L352.34 50.7722L361.339 49.0744L367.112 50.4326L368.64 48.0557L375.261 49.0744L386.467 44.4902L385.109 35.322L389.014 29.04H395.975L396.315 26.1537L403.106 24.6257L406.671 25.6443L409.728 22.5883L407.86 15.9667L410.237 9.51497L415.5 6.62869L410.237 -0.502205L419.066 -0.162617L420.594 -4.06765L419.236 -8.31222L422.631 -12.8963L420.254 -18.3294L417.028 -22.9135L421.103 -27.6674L430.102 -29.8746L440.119 -31.2329L444.194 -33.1004L449.118 -34.4587L457.098 -29.3653L462.021 -20.8761L478.151 -16.6316Z" fill="#D3D3D3" fill-opacity="0.4" stroke="white" stroke-width="1.31447" stroke-linejoin="round"/>
<path fill-rule="evenodd" clip-rule="evenodd" d="M101.447 12.3835L100.768 7.96924L98.3907 8.13898L97.7117 10.0066H94.6555H94.4858L93.4671 12.8929L92.4482 21.0425L90.5807 26.1359L91.2598 26.8151L88.8828 30.3805L95.5044 46.3401L96.6929 49.0566L99.7491 31.7388L99.0699 27.4942L99.0543 27.4992L100.054 24.3346L99.3746 17.5433L95.8315 16.1936L95.8439 16.1188L99.4096 17.477L100.598 14.0814H100.428L101.447 12.3835ZM97.131 24.4874L94.995 25.9661L94.9924 26.01L97.1673 24.5044L97.131 24.4874Z" fill="#D3D3D3" fill-opacity="0.4"/>
<path d="M133.035 20.1146L131.507 21.8125L113.85 27.2455L124.037 38.2814L121.32 39.9793L120.132 43.7145L113.17 45.2425L111.303 49.1475L107.737 52.5432L97.2106 50.6756L96.7012 49.1475L99.7574 31.8297L99.0782 27.5851L100.097 24.3592L99.4179 17.5679L100.606 14.1722L111.303 18.5866L127.772 6.87158L133.035 20.1146Z" fill="#009789" fill-opacity="0.7" stroke="white" stroke-width="1.31447" stroke-linejoin="round"/>
<path d="M278.375 189.229L274.639 181.588L265.811 163.591L293.485 152.725L297.9 130.993L292.806 123.183V118.769L295.013 114.355L294.674 109.94L298.749 107.733L296.881 106.205V99.0741H301.635L306.728 106.545L312.331 110.45L319.292 111.978L325.065 113.845L329.989 120.127L332.875 123.693L336.271 125.221L336.61 127.598L333.724 134.049L332.536 137.105L328.8 140.671L325.914 148.141L321.67 147.462L319.972 150.179L318.783 155.612L320.651 162.912L319.802 164.271H315.557L309.954 168.345L309.445 173.609L307.408 175.986L301.465 175.816L298.069 178.532L298.409 182.947L293.995 186.003L288.731 184.984L282.619 188.719L278.375 189.229ZM299.428 90.4152L297.221 86.6799L299.598 83.1145L300.786 83.9634L300.447 88.5476L299.428 90.4152Z" fill="#D3D3D3" fill-opacity="0.4" stroke="white" stroke-width="1.31447" stroke-linejoin="round"/>
<path d="M245.077 84.5659L245.586 84.7357L245.926 84.5659L246.604 85.754L246.435 86.0935L246.604 87.6209V88.809L246.265 89.4879L246.095 88.809L245.077 87.4512L245.247 86.7723L244.907 85.5843V84.9054L245.077 84.5659Z" fill="#D3D3D3" fill-opacity="0.4" stroke="white" stroke-width="1.31447" stroke-linejoin="round"/>
</g>
<path d="M88.1421 19.155C78.8881 29.4339 79.6918 45.2414 89.9372 54.4619C100.183 63.6825 115.99 62.8246 125.244 52.5457C134.498 42.2668 133.694 26.4593 123.449 17.2388C113.204 8.01821 97.3961 8.87615 88.1421 19.155Z" fill="#F87060" fill-opacity="0.15"/>
<path d="M91.9505 22.5827C84.5963 30.7514 85.235 43.3136 93.3771 50.6412C101.519 57.9688 114.081 57.287 121.436 49.1183C128.79 40.9496 128.151 28.3874 120.009 21.0598C111.867 13.7322 99.3047 14.414 91.9505 22.5827Z" fill="#F87060" fill-opacity="0.15"/>
<path d="M96.742 26.8947C91.778 32.4085 92.2091 40.888 97.705 45.8341C103.201 50.7803 111.68 50.32 116.644 44.8062C121.609 39.2924 121.177 30.8129 115.681 25.8668C110.186 20.9206 101.706 21.3808 96.742 26.8947Z" fill="#F87060" fill-opacity="0.3"/>
<path d="M102.282 32.1033C100.199 34.4176 100.38 37.9768 102.687 40.0529C104.994 42.1291 108.553 41.936 110.637 39.6217C112.72 37.3074 112.539 33.7482 110.232 31.6721C107.925 29.596 104.366 29.789 102.282 32.1033Z" fill="#F87060"/>
<path d="M104.986 34.5356C104.25 35.3522 104.314 36.6082 105.129 37.3409C105.943 38.0736 107.199 38.0056 107.934 37.189C108.669 36.3724 108.605 35.1165 107.791 34.3838C106.977 33.651 105.721 33.719 104.986 34.5356Z" fill="white"/>
<path d="M165.756 78.6116C156.502 88.8905 157.306 104.698 167.551 113.918C177.796 123.139 193.604 122.281 202.858 112.002C212.112 101.723 211.308 85.9159 201.063 76.6953C190.817 67.4747 175.01 68.3327 165.756 78.6116Z" fill="#F87060" fill-opacity="0.15"/>
<path d="M169.564 82.0392C162.21 90.2079 162.849 102.77 170.991 110.098C179.133 117.425 191.695 116.743 199.049 108.575C206.403 100.406 205.765 87.844 197.623 80.5164C189.481 73.1888 176.918 73.8706 169.564 82.0392Z" fill="#F87060" fill-opacity="0.15"/>
<path d="M174.356 86.3511C169.392 91.8649 169.823 100.344 175.319 105.291C180.815 110.237 189.294 109.776 194.258 104.263C199.222 98.7488 198.791 90.2693 193.295 85.3232C187.799 80.377 179.32 80.8373 174.356 86.3511Z" fill="#F87060" fill-opacity="0.3"/>
<path d="M179.896 91.5598C177.812 93.8742 177.994 97.4334 180.301 99.5095C182.607 101.586 186.167 101.393 188.25 99.0783C190.334 96.764 190.153 93.2048 187.846 91.1286C185.539 89.0524 181.98 89.2455 179.896 91.5598Z" fill="#F87060"/>
<path d="M182.599 93.9921C181.864 94.8087 181.928 96.0646 182.742 96.7973C183.556 97.53 184.812 97.462 185.548 96.6454C186.283 95.8288 186.219 94.5729 185.405 93.8402C184.59 93.1075 183.335 93.1755 182.599 93.9921Z" fill="white"/>
<defs>
<filter id="filter0_d_47_9" x="0" y="2" width="381" height="213" filterUnits="userSpaceOnUse" color-interpolation-filters="sRGB">
<feFlood flood-opacity="0" result="BackgroundImageFix"/>
<feColorMatrix in="SourceAlpha" type="matrix" values="0 0 0 0 0 0 0 0 0 0 0 0 0 0 0 0 0 0 127 0" result="hardAlpha"/>
<feMorphology radius="7" operator="erode" in="SourceAlpha" result="effect1_dropShadow_47_9"/>
<feOffset dy="6"/>
<feGaussianBlur stdDeviation="10.5"/>
<feComposite in2="hardAlpha" operator="out"/>
<feColorMatrix type="matrix" values="0 0 0 0 0 0 0 0 0 0 0 0 0 0 0 0 0 0 0.25 0"/>
<feBlend mode="normal" in2="BackgroundImageFix" result="effect1_dropShadow_47_9"/>
<feBlend mode="normal" in="SourceGraphic" in2="effect1_dropShadow_47_9" result="shape"/>
</filter>
</defs>
</svg>
