<svg width="147" height="147" viewBox="0 0 147 147" fill="none" xmlns="http://www.w3.org/2000/svg">
<g clip-path="url(#clip0_1_301)">
<path d="M29.8063 26.9523C15.8998 30.6786 7.69415 44.9678 11.404 58.9037L20.6836 93.7615C24.2295 107.083 37.4359 115.091 50.7341 112.541L56.5671 134.309C56.6626 134.668 56.8627 134.991 57.1419 135.236C57.4211 135.481 57.7668 135.638 58.1351 135.686C58.5035 135.734 58.8779 135.672 59.2109 135.507C59.5438 135.343 59.8203 135.083 60.0053 134.76L76.6899 105.779L110.952 96.5984C124.859 92.8722 133.084 78.5806 129.351 64.648L120.015 29.8053C116.283 15.8775 102.068 7.5898 88.1616 11.3161L29.8063 26.9523ZM50.7873 61.2073C53.7665 60.409 56.8747 62.2067 57.6729 65.1858C58.4711 68.1648 56.6782 71.2757 53.699 72.074C50.7198 72.8723 47.608 71.0755 46.8098 68.0965C46.0115 65.1175 47.808 62.0056 50.7873 61.2073ZM68.8948 56.3554C71.8741 55.5571 74.9858 57.3539 75.784 60.3329C76.5822 63.3119 74.7857 66.4238 71.8066 67.2221C68.8273 68.0204 65.7156 66.2236 64.9174 63.2446C64.1191 60.2656 65.9156 57.1537 68.8948 56.3554ZM87.0095 51.5016C89.9887 50.7033 93.1005 52.5001 93.8987 55.4791C94.6969 58.4581 92.9004 61.57 89.9212 62.3683C86.942 63.1665 83.8267 61.3707 83.0285 58.3917C82.2302 55.4128 84.0303 52.2999 87.0095 51.5016Z" fill="white" fill-opacity="0.2"/>
</g>
<defs>
<clipPath id="clip0_1_301">
<rect width="120" height="120" fill="white" transform="translate(0 31.0582) rotate(-15)"/>
</clipPath>
</defs>
</svg>
